<svg width="50" height="50" viewBox="0 0 50 50" fill="none" xmlns="http://www.w3.org/2000/svg">
<path d="M25 4.25C13.5416 4.25 4.16663 13.6042 4.16663 25.125C4.16663 35.5417 11.7916 44.1875 21.75 45.75V31.1667H16.4583V25.125H21.75V20.5208C21.75 15.2917 24.8541 12.4167 29.625 12.4167C31.8958 12.4167 34.2708 12.8125 34.2708 12.8125V17.9583H31.6458C29.0625 17.9583 28.25 19.5625 28.25 21.2083V25.125H34.0416L33.1041 31.1667H28.25V45.75C33.1592 44.9747 37.6296 42.4698 40.854 38.6876C44.0784 34.9054 45.8444 30.0951 45.8333 25.125C45.8333 13.6042 36.4583 4.25 25 4.25Z" fill="white"/>
</svg>
