<svg width="126" height="66" viewBox="0 0 126 66" fill="none" xmlns="http://www.w3.org/2000/svg">
<path d="M46.68 7.8H51.4C52.584 7.8 53.6347 8.03467 54.552 8.504C55.4693 8.97333 56.1787 9.63467 56.68 10.488C57.192 11.3307 57.448 12.3013 57.448 13.4C57.448 14.4987 57.192 15.4747 56.68 16.328C56.1787 17.1707 55.4693 17.8267 54.552 18.296C53.6347 18.7653 52.584 19 51.4 19H46.68V7.8ZM51.304 17.608C52.2107 17.608 53.0053 17.432 53.688 17.08C54.3813 16.728 54.9147 16.2373 55.288 15.608C55.6613 14.968 55.848 14.232 55.848 13.4C55.848 12.568 55.6613 11.8373 55.288 11.208C54.9147 10.568 54.3813 10.072 53.688 9.72C53.0053 9.368 52.2107 9.192 51.304 9.192H48.28V17.608H51.304ZM63.3068 19.096C62.4641 19.096 61.7068 18.9093 61.0348 18.536C60.3628 18.1627 59.8348 17.6507 59.4508 17C59.0774 16.3387 58.8908 15.592 58.8908 14.76C58.8908 13.928 59.0774 13.1867 59.4508 12.536C59.8348 11.8747 60.3628 11.3627 61.0348 11C61.7068 10.6267 62.4641 10.44 63.3068 10.44C64.1494 10.44 64.9014 10.6267 65.5628 11C66.2348 11.3627 66.7574 11.8747 67.1308 12.536C67.5148 13.1867 67.7068 13.928 67.7068 14.76C67.7068 15.592 67.5148 16.3387 67.1308 17C66.7574 17.6507 66.2348 18.1627 65.5628 18.536C64.9014 18.9093 64.1494 19.096 63.3068 19.096ZM63.3068 17.752C63.8508 17.752 64.3361 17.6293 64.7628 17.384C65.2001 17.128 65.5414 16.776 65.7868 16.328C66.0321 15.8693 66.1548 15.3467 66.1548 14.76C66.1548 14.1733 66.0321 13.656 65.7868 13.208C65.5414 12.7493 65.2001 12.3973 64.7628 12.152C64.3361 11.9067 63.8508 11.784 63.3068 11.784C62.7628 11.784 62.2721 11.9067 61.8348 12.152C61.4081 12.3973 61.0668 12.7493 60.8108 13.208C60.5654 13.656 60.4428 14.1733 60.4428 14.76C60.4428 15.3467 60.5654 15.8693 60.8108 16.328C61.0668 16.776 61.4081 17.128 61.8348 17.384C62.2721 17.6293 62.7628 17.752 63.3068 17.752ZM69.831 10.52H71.367V19H69.831V10.52ZM70.599 8.888C70.3003 8.888 70.0497 8.792 69.847 8.6C69.655 8.408 69.559 8.17333 69.559 7.896C69.559 7.61867 69.655 7.384 69.847 7.192C70.0497 6.98933 70.3003 6.888 70.599 6.888C70.8977 6.888 71.143 6.984 71.335 7.176C71.5377 7.35733 71.639 7.58667 71.639 7.864C71.639 8.152 71.5377 8.39733 71.335 8.6C71.143 8.792 70.8977 8.888 70.599 8.888ZM78.8278 10.44C79.9051 10.44 80.7584 10.7547 81.3878 11.384C82.0278 12.0027 82.3478 12.9147 82.3478 14.12V19H80.8118V14.296C80.8118 13.4747 80.6144 12.856 80.2198 12.44C79.8251 12.024 79.2598 11.816 78.5238 11.816C77.6918 11.816 77.0358 12.0613 76.5558 12.552C76.0758 13.032 75.8358 13.7253 75.8358 14.632V19H74.2998V10.52H75.7718V11.8C76.0811 11.3627 76.4971 11.0267 77.0198 10.792C77.5531 10.5573 78.1558 10.44 78.8278 10.44ZM93.3493 10.52V17.848C93.3493 19.3307 92.9813 20.424 92.2453 21.128C91.5093 21.8427 90.4106 22.2 88.9493 22.2C88.1493 22.2 87.3866 22.088 86.6613 21.864C85.9359 21.6507 85.3493 21.3413 84.9013 20.936L85.6373 19.752C86.0319 20.0933 86.5173 20.36 87.0933 20.552C87.6799 20.7547 88.2826 20.856 88.9013 20.856C89.8933 20.856 90.6239 20.6213 91.0933 20.152C91.5733 19.6827 91.8133 18.968 91.8133 18.008V17.336C91.4506 17.7733 91.0026 18.104 90.4693 18.328C89.9466 18.5413 89.3759 18.648 88.7573 18.648C87.9466 18.648 87.2106 18.4773 86.5493 18.136C85.8986 17.784 85.3866 17.2987 85.0133 16.68C84.6399 16.0507 84.4533 15.336 84.4533 14.536C84.4533 13.736 84.6399 13.0267 85.0133 12.408C85.3866 11.7787 85.8986 11.2933 86.5493 10.952C87.2106 10.6107 87.9466 10.44 88.7573 10.44C89.3973 10.44 89.9893 10.5573 90.5333 10.792C91.0879 11.0267 91.5413 11.3733 91.8933 11.832V10.52H93.3493ZM88.9333 17.304C89.4879 17.304 89.9839 17.1867 90.4213 16.952C90.8693 16.7173 91.2159 16.392 91.4613 15.976C91.7173 15.5493 91.8453 15.0693 91.8453 14.536C91.8453 13.7147 91.5733 13.0533 91.0293 12.552C90.4853 12.04 89.7866 11.784 88.9333 11.784C88.0693 11.784 87.3653 12.04 86.8213 12.552C86.2773 13.0533 86.0053 13.7147 86.0053 14.536C86.0053 15.0693 86.1279 15.5493 86.3733 15.976C86.6293 16.392 86.9759 16.7173 87.4133 16.952C87.8613 17.1867 88.3679 17.304 88.9333 17.304ZM54.216 33.192C54.8667 33.3733 55.3787 33.704 55.752 34.184C56.1253 34.6533 56.312 35.2507 56.312 35.976C56.312 36.9467 55.944 37.6933 55.208 38.216C54.4827 38.7387 53.4213 39 52.024 39H46.68V27.8H51.704C52.984 27.8 53.9707 28.056 54.664 28.568C55.368 29.08 55.72 29.7893 55.72 30.696C55.72 31.2827 55.5813 31.7893 55.304 32.216C55.0373 32.6427 54.6747 32.968 54.216 33.192ZM48.28 29.096V32.68H51.56C52.3813 32.68 53.0107 32.5307 53.448 32.232C53.896 31.9227 54.12 31.4747 54.12 30.888C54.12 30.3013 53.896 29.8587 53.448 29.56C53.0107 29.2507 52.3813 29.096 51.56 29.096H48.28ZM51.96 37.704C52.8667 37.704 53.5493 37.5547 54.008 37.256C54.4667 36.9573 54.696 36.488 54.696 35.848C54.696 34.6 53.784 33.976 51.96 33.976H48.28V37.704H51.96ZM66.4694 30.52V39H65.0134V37.72C64.704 38.1573 64.2934 38.4987 63.7814 38.744C63.28 38.9787 62.7307 39.096 62.1334 39.096C61.0027 39.096 60.112 38.7867 59.4614 38.168C58.8107 37.5387 58.4854 36.616 58.4854 35.4V30.52H60.0214V35.224C60.0214 36.0453 60.2187 36.6693 60.6134 37.096C61.008 37.512 61.5734 37.72 62.3094 37.72C63.12 37.72 63.76 37.4747 64.2294 36.984C64.6987 36.4933 64.9334 35.8 64.9334 34.904V30.52H66.4694ZM71.8255 39.096C71.1322 39.096 70.4655 39.0053 69.8255 38.824C69.1855 38.632 68.6842 38.392 68.3215 38.104L68.9615 36.888C69.3348 37.1547 69.7882 37.368 70.3215 37.528C70.8548 37.688 71.3935 37.768 71.9375 37.768C73.2815 37.768 73.9535 37.384 73.9535 36.616C73.9535 36.36 73.8628 36.1573 73.6815 36.008C73.5002 35.8587 73.2708 35.752 72.9935 35.688C72.7268 35.6133 72.3428 35.5333 71.8415 35.448C71.1588 35.3413 70.5988 35.2187 70.1615 35.08C69.7348 34.9413 69.3668 34.7067 69.0575 34.376C68.7482 34.0453 68.5935 33.5813 68.5935 32.984C68.5935 32.216 68.9135 31.6027 69.5535 31.144C70.1935 30.6747 71.0522 30.44 72.1295 30.44C72.6948 30.44 73.2602 30.5093 73.8255 30.648C74.3908 30.7867 74.8548 30.9733 75.2175 31.208L74.5615 32.424C73.8682 31.976 73.0522 31.752 72.1135 31.752C71.4628 31.752 70.9668 31.8587 70.6255 32.072C70.2842 32.2853 70.1135 32.568 70.1135 32.92C70.1135 33.1973 70.2095 33.416 70.4015 33.576C70.5935 33.736 70.8282 33.8533 71.1055 33.928C71.3935 34.0027 71.7935 34.088 72.3055 34.184C72.9882 34.3013 73.5375 34.4293 73.9535 34.568C74.3802 34.696 74.7428 34.92 75.0415 35.24C75.3402 35.56 75.4895 36.008 75.4895 36.584C75.4895 37.352 75.1588 37.9653 74.4975 38.424C73.8468 38.872 72.9562 39.096 71.8255 39.096ZM77.4091 30.52H78.9451V39H77.4091V30.52ZM78.1771 28.888C77.8785 28.888 77.6278 28.792 77.4251 28.6C77.2331 28.408 77.1371 28.1733 77.1371 27.896C77.1371 27.6187 77.2331 27.384 77.4251 27.192C77.6278 26.9893 77.8785 26.888 78.1771 26.888C78.4758 26.888 78.7211 26.984 78.9131 27.176C79.1158 27.3573 79.2171 27.5867 79.2171 27.864C79.2171 28.152 79.1158 28.3973 78.9131 28.6C78.7211 28.792 78.4758 28.888 78.1771 28.888ZM86.4059 30.44C87.4832 30.44 88.3365 30.7547 88.9659 31.384C89.6059 32.0027 89.9259 32.9147 89.9259 34.12V39H88.3899V34.296C88.3899 33.4747 88.1925 32.856 87.7979 32.44C87.4032 32.024 86.8379 31.816 86.1019 31.816C85.2699 31.816 84.6139 32.0613 84.1339 32.552C83.6539 33.032 83.4139 33.7253 83.4139 34.632V39H81.8779V30.52H83.3499V31.8C83.6592 31.3627 84.0752 31.0267 84.5979 30.792C85.1312 30.5573 85.7339 30.44 86.4059 30.44ZM100.479 34.808C100.479 34.9253 100.469 35.08 100.447 35.272H93.5674C93.6634 36.0187 93.9887 36.6213 94.5434 37.08C95.1087 37.528 95.8074 37.752 96.6394 37.752C97.6527 37.752 98.4687 37.4107 99.0874 36.728L99.9354 37.72C99.5514 38.168 99.0714 38.5093 98.4954 38.744C97.93 38.9787 97.2954 39.096 96.5914 39.096C95.6954 39.096 94.9007 38.9147 94.2074 38.552C93.514 38.1787 92.9754 37.6613 92.5914 37C92.218 36.3387 92.0314 35.592 92.0314 34.76C92.0314 33.9387 92.2127 33.1973 92.5754 32.536C92.9487 31.8747 93.4554 31.3627 94.0954 31C94.746 30.6267 95.4767 30.44 96.2874 30.44C97.098 30.44 97.818 30.6267 98.4474 31C99.0874 31.3627 99.5834 31.8747 99.9354 32.536C100.298 33.1973 100.479 33.9547 100.479 34.808ZM96.2874 31.736C95.5514 31.736 94.9327 31.96 94.4314 32.408C93.9407 32.856 93.6527 33.4427 93.5674 34.168H99.0074C98.922 33.4533 98.6287 32.872 98.1274 32.424C97.6367 31.9653 97.0234 31.736 96.2874 31.736ZM105.044 39.096C104.351 39.096 103.684 39.0053 103.044 38.824C102.404 38.632 101.903 38.392 101.54 38.104L102.18 36.888C102.554 37.1547 103.007 37.368 103.54 37.528C104.074 37.688 104.612 37.768 105.156 37.768C106.5 37.768 107.172 37.384 107.172 36.616C107.172 36.36 107.082 36.1573 106.9 36.008C106.719 35.8587 106.49 35.752 106.212 35.688C105.946 35.6133 105.562 35.5333 105.06 35.448C104.378 35.3413 103.818 35.2187 103.38 35.08C102.954 34.9413 102.586 34.7067 102.276 34.376C101.967 34.0453 101.812 33.5813 101.812 32.984C101.812 32.216 102.132 31.6027 102.772 31.144C103.412 30.6747 104.271 30.44 105.348 30.44C105.914 30.44 106.479 30.5093 107.044 30.648C107.61 30.7867 108.074 30.9733 108.436 31.208L107.78 32.424C107.087 31.976 106.271 31.752 105.332 31.752C104.682 31.752 104.186 31.8587 103.844 32.072C103.503 32.2853 103.332 32.568 103.332 32.92C103.332 33.1973 103.428 33.416 103.62 33.576C103.812 33.736 104.047 33.8533 104.324 33.928C104.612 34.0027 105.012 34.088 105.524 34.184C106.207 34.3013 106.756 34.4293 107.172 34.568C107.599 34.696 107.962 34.92 108.26 35.24C108.559 35.56 108.708 36.008 108.708 36.584C108.708 37.352 108.378 37.9653 107.716 38.424C107.066 38.872 106.175 39.096 105.044 39.096ZM113.06 39.096C112.367 39.096 111.7 39.0053 111.06 38.824C110.42 38.632 109.919 38.392 109.556 38.104L110.196 36.888C110.569 37.1547 111.023 37.368 111.556 37.528C112.089 37.688 112.628 37.768 113.172 37.768C114.516 37.768 115.188 37.384 115.188 36.616C115.188 36.36 115.097 36.1573 114.916 36.008C114.735 35.8587 114.505 35.752 114.228 35.688C113.961 35.6133 113.577 35.5333 113.076 35.448C112.393 35.3413 111.833 35.2187 111.396 35.08C110.969 34.9413 110.601 34.7067 110.292 34.376C109.983 34.0453 109.828 33.5813 109.828 32.984C109.828 32.216 110.148 31.6027 110.788 31.144C111.428 30.6747 112.287 30.44 113.364 30.44C113.929 30.44 114.495 30.5093 115.06 30.648C115.625 30.7867 116.089 30.9733 116.452 31.208L115.796 32.424C115.103 31.976 114.287 31.752 113.348 31.752C112.697 31.752 112.201 31.8587 111.86 32.072C111.519 32.2853 111.348 32.568 111.348 32.92C111.348 33.1973 111.444 33.416 111.636 33.576C111.828 33.736 112.063 33.8533 112.34 33.928C112.628 34.0027 113.028 34.088 113.54 34.184C114.223 34.3013 114.772 34.4293 115.188 34.568C115.615 34.696 115.977 34.92 116.276 35.24C116.575 35.56 116.724 36.008 116.724 36.584C116.724 37.352 116.393 37.9653 115.732 38.424C115.081 38.872 114.191 39.096 113.06 39.096ZM54.44 53.336H55.976V57.704C55.4213 58.1627 54.776 58.5147 54.04 58.76C53.304 59.0053 52.536 59.128 51.736 59.128C50.6053 59.128 49.5867 58.8827 48.68 58.392C47.7733 57.8907 47.0587 57.208 46.536 56.344C46.024 55.4693 45.768 54.488 45.768 53.4C45.768 52.312 46.024 51.3307 46.536 50.456C47.0587 49.5813 47.7733 48.8987 48.68 48.408C49.5973 47.9173 50.6267 47.672 51.768 47.672C52.664 47.672 53.4747 47.8213 54.2 48.12C54.936 48.408 55.56 48.8347 56.072 49.4L55.08 50.392C54.184 49.528 53.1013 49.096 51.832 49.096C50.9787 49.096 50.2107 49.2827 49.528 49.656C48.856 50.0187 48.328 50.5307 47.944 51.192C47.56 51.8427 47.368 52.5787 47.368 53.4C47.368 54.2107 47.56 54.9467 47.944 55.608C48.328 56.2587 48.856 56.7707 49.528 57.144C50.2107 57.5173 50.9733 57.704 51.816 57.704C52.8187 57.704 53.6933 57.464 54.44 56.984V53.336ZM66.7194 50.52V59H65.2634V57.72C64.954 58.1573 64.5434 58.4987 64.0314 58.744C63.53 58.9787 62.9807 59.096 62.3834 59.096C61.2527 59.096 60.362 58.7867 59.7114 58.168C59.0607 57.5387 58.7354 56.616 58.7354 55.4V50.52H60.2714V55.224C60.2714 56.0453 60.4687 56.6693 60.8634 57.096C61.258 57.512 61.8234 57.72 62.5594 57.72C63.37 57.72 64.01 57.4747 64.4794 56.984C64.9487 56.4933 65.1834 55.8 65.1834 54.904V50.52H66.7194ZM69.6435 50.52H71.1795V59H69.6435V50.52ZM70.4115 48.888C70.1128 48.888 69.8622 48.792 69.6595 48.6C69.4675 48.408 69.3715 48.1733 69.3715 47.896C69.3715 47.6187 69.4675 47.384 69.6595 47.192C69.8622 46.9893 70.1128 46.888 70.4115 46.888C70.7102 46.888 70.9555 46.984 71.1475 47.176C71.3502 47.3573 71.4515 47.5867 71.4515 47.864C71.4515 48.152 71.3502 48.3973 71.1475 48.6C70.9555 48.792 70.7102 48.888 70.4115 48.888ZM82.1123 47.128V59H80.6403V57.656C80.2989 58.1253 79.8669 58.4827 79.3443 58.728C78.8216 58.9733 78.2456 59.096 77.6163 59.096C76.7949 59.096 76.0589 58.9147 75.4083 58.552C74.7576 58.1893 74.2456 57.6827 73.8723 57.032C73.5096 56.3707 73.3283 55.6133 73.3283 54.76C73.3283 53.9067 73.5096 53.1547 73.8723 52.504C74.2456 51.8533 74.7576 51.3467 75.4083 50.984C76.0589 50.6213 76.7949 50.44 77.6163 50.44C78.2243 50.44 78.7843 50.5573 79.2963 50.792C79.8083 51.016 80.2349 51.352 80.5763 51.8V47.128H82.1123ZM77.7443 57.752C78.2776 57.752 78.7629 57.6293 79.2003 57.384C79.6376 57.128 79.9789 56.776 80.2243 56.328C80.4696 55.8693 80.5923 55.3467 80.5923 54.76C80.5923 54.1733 80.4696 53.656 80.2243 53.208C79.9789 52.7493 79.6376 52.3973 79.2003 52.152C78.7629 51.9067 78.2776 51.784 77.7443 51.784C77.2003 51.784 76.7096 51.9067 76.2723 52.152C75.8456 52.3973 75.5043 52.7493 75.2483 53.208C75.0029 53.656 74.8803 54.1733 74.8803 54.76C74.8803 55.3467 75.0029 55.8693 75.2483 56.328C75.5043 56.776 75.8456 57.128 76.2723 57.384C76.7096 57.6293 77.2003 57.752 77.7443 57.752ZM92.6825 54.808C92.6825 54.9253 92.6718 55.08 92.6505 55.272H85.7705C85.8665 56.0187 86.1918 56.6213 86.7465 57.08C87.3118 57.528 88.0105 57.752 88.8425 57.752C89.8558 57.752 90.6718 57.4107 91.2905 56.728L92.1385 57.72C91.7545 58.168 91.2745 58.5093 90.6985 58.744C90.1332 58.9787 89.4985 59.096 88.7945 59.096C87.8985 59.096 87.1038 58.9147 86.4105 58.552C85.7172 58.1787 85.1785 57.6613 84.7945 57C84.4212 56.3387 84.2345 55.592 84.2345 54.76C84.2345 53.9387 84.4158 53.1973 84.7785 52.536C85.1518 51.8747 85.6585 51.3627 86.2985 51C86.9492 50.6267 87.6798 50.44 88.4905 50.44C89.3012 50.44 90.0212 50.6267 90.6505 51C91.2905 51.3627 91.7865 51.8747 92.1385 52.536C92.5012 53.1973 92.6825 53.9547 92.6825 54.808ZM88.4905 51.736C87.7545 51.736 87.1358 51.96 86.6345 52.408C86.1438 52.856 85.8558 53.4427 85.7705 54.168H91.2105C91.1252 53.4533 90.8318 52.872 90.3305 52.424C89.8398 51.9653 89.2265 51.736 88.4905 51.736Z" fill="#626262"/>
<rect x="3.5" y="0.5" width="122" height="65" stroke="#F0F0F0" stroke-opacity="0.42"/>
<g filter="url(#filter0_d)">
<path d="M9.16675 44.3748C9.16675 42.4998 9.79175 40.6248 10.8334 38.9582C11.8751 37.2915 13.9584 35.4165 17.0834 33.3332C15.2084 31.0415 14.1667 29.3748 13.5417 28.1248C12.7084 26.6665 12.5001 25.4165 12.5001 23.9582C12.5001 20.8332 13.3334 18.5415 15.2084 16.6665C17.0834 14.7915 19.5834 14.1665 22.7084 14.1665C25.4167 14.1665 27.7084 14.9998 29.5834 16.6665C31.4584 18.3332 32.2917 20.4165 32.2917 22.7082C32.2917 24.3748 31.8751 25.8332 31.0417 27.2915C30.2084 28.7498 28.7501 30.2082 26.6667 31.6665L23.7501 33.9582L32.7084 44.7915C33.9584 42.2915 34.5834 39.7915 34.5834 36.6665H39.1667C39.1667 41.4582 38.1251 45.4165 35.8334 48.5415L41.6667 55.4165H35.4167L32.7084 52.2915C31.2501 53.5415 29.7917 54.3748 27.9167 54.9998C26.0417 55.6248 24.1667 56.0415 22.2917 56.0415C18.3334 56.0415 15.2084 54.9998 12.7084 52.9165C10.4167 50.6248 9.16675 47.9165 9.16675 44.3748ZM22.2917 51.6665C25.0001 51.6665 27.5001 50.6248 29.7917 48.5415L20.0001 36.6665L19.1667 37.2915C16.0417 39.5832 14.5834 41.8748 14.5834 44.3748C14.5834 46.6665 15.2084 48.3332 16.6667 49.5832C18.1251 50.8332 19.7917 51.6665 22.2917 51.6665ZM17.7084 23.9582C17.7084 25.8332 18.7501 27.9165 21.0417 30.6248L24.3751 28.3332C25.6251 27.4998 26.4584 26.6665 26.8751 25.8332C27.2917 24.9998 27.5001 23.9582 27.5001 22.9165C27.5001 21.6665 27.0834 20.6248 26.0417 19.7915C25.2084 18.9582 23.9584 18.5415 22.5001 18.5415C21.0417 18.5415 19.7917 18.9582 18.9584 19.9998C18.1251 21.0415 17.7084 22.2915 17.7084 23.9582Z" fill="#971B2F"/>
</g>
<defs>
<filter id="filter0_d" x="-4" y="10" width="58" height="58" filterUnits="userSpaceOnUse" color-interpolation-filters="sRGB">
<feFlood flood-opacity="0" result="BackgroundImageFix"/>
<feColorMatrix in="SourceAlpha" type="matrix" values="0 0 0 0 0 0 0 0 0 0 0 0 0 0 0 0 0 0 127 0"/>
<feOffset dy="4"/>
<feGaussianBlur stdDeviation="2"/>
<feColorMatrix type="matrix" values="0 0 0 0 0 0 0 0 0 0 0 0 0 0 0 0 0 0 0.25 0"/>
<feBlend mode="normal" in2="BackgroundImageFix" result="effect1_dropShadow"/>
<feBlend mode="normal" in="SourceGraphic" in2="effect1_dropShadow" result="shape"/>
</filter>
</defs>
</svg>
