<svg width="336" height="161" viewBox="0 0 336 161" fill="none" xmlns="http://www.w3.org/2000/svg">
<path d="M112.536 11.308C112.488 10.708 112.38 10.252 112.212 9.94C112.044 9.628 111.852 9.4 111.636 9.256C111.42 9.064 111.192 8.956 110.952 8.932C110.736 8.908 110.328 8.896 109.728 8.896L109.548 8.752L109.44 7.384L109.512 7.24C109.68 7.24 109.92 7.252 110.232 7.276C110.544 7.3 110.88 7.324 111.24 7.348C111.6 7.372 111.948 7.396 112.284 7.42C112.644 7.444 112.956 7.456 113.22 7.456H116.712C117 7.456 117.36 7.456 117.792 7.456C118.248 7.432 118.704 7.408 119.16 7.384C119.616 7.36 120.048 7.348 120.456 7.348C120.888 7.324 121.248 7.312 121.536 7.312C123.408 7.312 125.076 7.636 126.54 8.284C128.028 8.908 129.276 9.76 130.284 10.84C131.292 11.92 132.06 13.18 132.588 14.62C133.14 16.06 133.416 17.584 133.416 19.192C133.416 20.776 133.152 22.288 132.624 23.728C132.12 25.144 131.364 26.404 130.356 27.508C129.348 28.588 128.088 29.452 126.576 30.1C125.064 30.748 123.312 31.072 121.32 31.072C121.128 31.072 120.828 31.06 120.42 31.036C120.036 31.036 119.616 31.036 119.16 31.036C118.728 31.036 118.296 31.024 117.864 31C117.456 31 117.132 31 116.892 31H113.544C113.376 31 113.1 31.012 112.716 31.036C112.332 31.06 111.936 31.084 111.528 31.108C111.12 31.132 110.724 31.156 110.34 31.18C109.956 31.204 109.68 31.216 109.512 31.216L109.44 31.072L109.548 29.704L109.728 29.56C110.016 29.56 110.352 29.548 110.736 29.524C111.12 29.476 111.42 29.38 111.636 29.236C111.828 29.092 112.008 28.864 112.176 28.552C112.344 28.24 112.464 27.772 112.536 27.148C112.536 26.98 112.536 26.788 112.536 26.572C112.56 26.332 112.572 26.044 112.572 25.708C112.596 25.372 112.608 24.964 112.608 24.484C112.608 24.004 112.608 23.404 112.608 22.684V16.816C112.608 16.576 112.608 16.216 112.608 15.736C112.608 15.232 112.608 14.704 112.608 14.152C112.608 13.6 112.596 13.06 112.572 12.532C112.572 12.004 112.56 11.596 112.536 11.308ZM120.132 28.192C121.572 28.192 122.844 27.964 123.948 27.508C125.052 27.028 125.976 26.38 126.72 25.564C127.488 24.748 128.064 23.8 128.448 22.72C128.856 21.616 129.06 20.44 129.06 19.192C129.06 17.896 128.856 16.708 128.448 15.628C128.04 14.524 127.44 13.576 126.648 12.784C125.88 11.992 124.932 11.38 123.804 10.948C122.676 10.492 121.392 10.264 119.952 10.264H116.784C116.736 10.96 116.7 11.548 116.676 12.028C116.676 12.484 116.664 12.952 116.64 13.432C116.616 13.912 116.604 14.44 116.604 15.016C116.604 15.568 116.604 16.276 116.604 17.14V21.604C116.604 23.044 116.604 24.172 116.604 24.988C116.628 25.78 116.664 26.38 116.712 26.788C116.784 27.412 116.94 27.808 117.18 27.976C117.42 28.12 117.852 28.192 118.476 28.192H120.132ZM145.221 13.9C146.637 13.9 147.897 14.152 149.001 14.656C150.105 15.136 151.029 15.796 151.773 16.636C152.541 17.452 153.117 18.4 153.501 19.48C153.909 20.56 154.113 21.676 154.113 22.828C154.113 23.932 153.933 25 153.573 26.032C153.213 27.064 152.661 27.976 151.917 28.768C151.173 29.56 150.249 30.196 149.145 30.676C148.041 31.156 146.757 31.396 145.293 31.396C143.781 31.396 142.461 31.144 141.333 30.64C140.205 30.136 139.269 29.476 138.525 28.66C137.805 27.844 137.265 26.92 136.905 25.888C136.545 24.832 136.365 23.752 136.365 22.648C136.365 21.472 136.569 20.356 136.977 19.3C137.385 18.244 137.961 17.32 138.705 16.528C139.473 15.712 140.397 15.076 141.477 14.62C142.581 14.14 143.829 13.9 145.221 13.9ZM145.257 28.912C146.001 28.912 146.649 28.744 147.201 28.408C147.777 28.048 148.257 27.592 148.641 27.04C149.025 26.464 149.301 25.816 149.469 25.096C149.661 24.352 149.757 23.596 149.757 22.828C149.757 22.084 149.649 21.34 149.433 20.596C149.241 19.828 148.941 19.144 148.533 18.544C148.149 17.944 147.669 17.452 147.093 17.068C146.517 16.684 145.857 16.492 145.113 16.492C144.345 16.492 143.673 16.672 143.097 17.032C142.545 17.392 142.089 17.86 141.729 18.436C141.369 19.012 141.093 19.66 140.901 20.38C140.733 21.1 140.649 21.832 140.649 22.576C140.649 23.344 140.745 24.1 140.937 24.844C141.153 25.588 141.453 26.272 141.837 26.896C142.245 27.496 142.737 27.988 143.313 28.372C143.889 28.732 144.537 28.912 145.257 28.912ZM165.759 31.144C165.591 31.144 165.339 31.132 165.003 31.108C164.667 31.084 164.307 31.06 163.923 31.036C163.539 31.036 163.179 31.024 162.843 31C162.507 31 162.255 31 162.087 31H160.143C159.975 31 159.711 31 159.351 31C159.015 31.024 158.655 31.036 158.271 31.036C157.911 31.06 157.551 31.084 157.191 31.108C156.855 31.132 156.603 31.144 156.435 31.144L156.399 31L156.471 29.776L156.579 29.632C156.939 29.632 157.311 29.62 157.695 29.596C158.079 29.548 158.367 29.428 158.559 29.236C158.727 29.068 158.847 28.852 158.919 28.588C158.991 28.324 159.051 27.952 159.099 27.472C159.123 27.304 159.135 27.136 159.135 26.968C159.159 26.8 159.171 26.62 159.171 26.428C159.195 26.236 159.207 26.008 159.207 25.744C159.207 25.48 159.207 25.156 159.207 24.772V20.704C159.207 20.248 159.207 19.888 159.207 19.624C159.207 19.336 159.195 19.096 159.171 18.904C159.171 18.712 159.159 18.544 159.135 18.4C159.135 18.232 159.123 18.04 159.099 17.824C159.051 17.584 158.979 17.356 158.883 17.14C158.787 16.924 158.703 16.78 158.631 16.708C158.391 16.396 158.091 16.216 157.731 16.168C157.371 16.12 156.999 16.096 156.615 16.096L156.471 15.952V14.728L156.615 14.62H158.451C159.003 14.62 159.591 14.62 160.215 14.62C160.839 14.596 161.391 14.548 161.871 14.476L163.131 14.296L163.347 14.98C163.299 15.076 163.251 15.232 163.203 15.448C163.179 15.64 163.155 15.856 163.131 16.096C163.131 16.312 163.119 16.54 163.095 16.78C163.095 16.996 163.095 17.176 163.095 17.32C163.095 17.512 163.083 17.692 163.059 17.86C163.059 18.004 163.059 18.184 163.059 18.4C163.059 18.592 163.047 18.844 163.023 19.156C163.023 19.468 163.023 19.852 163.023 20.308V24.34C163.023 24.82 163.023 25.216 163.023 25.528C163.047 25.816 163.059 26.068 163.059 26.284C163.083 26.5 163.095 26.704 163.095 26.896C163.119 27.064 163.143 27.256 163.167 27.472C163.215 27.976 163.263 28.36 163.311 28.624C163.383 28.864 163.515 29.068 163.707 29.236C163.899 29.428 164.163 29.548 164.499 29.596C164.859 29.62 165.219 29.632 165.579 29.632L165.759 29.812L165.831 31L165.759 31.144ZM158.451 8.932C158.451 8.644 158.511 8.356 158.631 8.068C158.751 7.78 158.919 7.528 159.135 7.312C159.351 7.072 159.591 6.892 159.855 6.772C160.143 6.628 160.443 6.556 160.755 6.556C161.355 6.556 161.895 6.808 162.375 7.312C162.879 7.792 163.131 8.332 163.131 8.932C163.131 9.244 163.059 9.544 162.915 9.832C162.795 10.096 162.615 10.336 162.375 10.552C162.159 10.768 161.907 10.936 161.619 11.056C161.331 11.176 161.043 11.236 160.755 11.236C160.131 11.236 159.591 11.008 159.135 10.552C158.679 10.096 158.451 9.556 158.451 8.932ZM174.099 17.572C174.651 16.516 175.407 15.64 176.367 14.944C177.327 14.248 178.455 13.9 179.751 13.9C180.495 13.9 181.227 13.996 181.947 14.188C182.667 14.38 183.315 14.68 183.891 15.088C184.491 15.496 184.983 16.024 185.367 16.672C185.775 17.296 186.039 18.04 186.159 18.904C186.231 19.528 186.267 20.188 186.267 20.884C186.291 21.58 186.303 22.276 186.303 22.972C186.327 23.788 186.339 24.544 186.339 25.24C186.339 25.912 186.339 26.656 186.339 27.472C186.339 28.024 186.399 28.444 186.519 28.732C186.663 28.996 186.831 29.176 187.023 29.272C187.287 29.416 187.563 29.512 187.851 29.56C188.163 29.608 188.511 29.632 188.895 29.632L189.003 29.776L189.075 31L189.003 31.144C188.499 31.096 187.935 31.06 187.311 31.036C186.711 31.012 186.123 31 185.547 31C184.971 31 184.395 31 183.819 31C183.243 31.024 182.703 31.06 182.199 31.108L181.947 30.388C182.019 30.076 182.079 29.608 182.127 28.984C182.199 28.36 182.247 27.856 182.271 27.472C182.319 26.56 182.355 25.708 182.379 24.916C182.403 24.124 182.415 23.416 182.415 22.792C182.415 22.24 182.403 21.64 182.379 20.992C182.355 20.344 182.271 19.78 182.127 19.3C181.935 18.532 181.539 17.968 180.939 17.608C180.363 17.224 179.691 17.032 178.923 17.032C178.203 17.032 177.543 17.164 176.943 17.428C176.343 17.692 175.827 18.016 175.395 18.4C174.987 18.76 174.663 19.144 174.423 19.552C174.183 19.96 174.063 20.32 174.063 20.632V24.34C174.063 24.82 174.063 25.216 174.063 25.528C174.063 25.816 174.063 26.068 174.063 26.284C174.087 26.5 174.099 26.704 174.099 26.896C174.123 27.064 174.147 27.256 174.171 27.472C174.219 27.976 174.315 28.36 174.459 28.624C174.627 28.864 174.807 29.068 174.999 29.236C175.191 29.428 175.419 29.548 175.683 29.596C175.947 29.62 176.259 29.632 176.619 29.632L176.799 29.812L176.871 31L176.799 31.144C176.631 31.144 176.379 31.132 176.043 31.108C175.707 31.084 175.347 31.06 174.963 31.036C174.579 31.036 174.219 31.024 173.883 31C173.547 31 173.295 31 173.127 31H171.147C170.979 31 170.715 31 170.355 31C170.019 31.024 169.659 31.036 169.275 31.036C168.915 31.06 168.555 31.084 168.195 31.108C167.859 31.132 167.607 31.144 167.439 31.144L167.403 31L167.475 29.776L167.583 29.632C167.967 29.632 168.303 29.62 168.591 29.596C168.903 29.548 169.155 29.428 169.347 29.236C169.515 29.068 169.671 28.852 169.815 28.588C169.959 28.324 170.055 27.952 170.103 27.472C170.127 27.304 170.139 27.136 170.139 26.968C170.163 26.8 170.175 26.62 170.175 26.428C170.199 26.236 170.211 26.008 170.211 25.744C170.211 25.48 170.211 25.156 170.211 24.772V21.064C170.211 20.608 170.211 20.224 170.211 19.912C170.211 19.6 170.199 19.324 170.175 19.084C170.175 18.844 170.163 18.628 170.139 18.436C170.139 18.244 170.127 18.04 170.103 17.824C170.055 17.584 169.983 17.356 169.887 17.14C169.791 16.924 169.707 16.78 169.635 16.708C169.395 16.396 169.095 16.216 168.735 16.168C168.375 16.12 168.003 16.096 167.619 16.096L167.475 15.952V14.728L167.619 14.62H169.455C170.007 14.62 170.595 14.62 171.219 14.62C171.867 14.596 172.431 14.548 172.911 14.476L174.171 14.296L174.387 14.98C174.195 15.244 174.075 15.616 174.027 16.096C174.003 16.552 173.991 17.02 173.991 17.5L174.099 17.572ZM194.319 26.104C193.095 25.624 192.207 24.868 191.655 23.836C191.103 22.804 190.827 21.664 190.827 20.416C190.827 19.528 190.983 18.688 191.295 17.896C191.607 17.104 192.051 16.42 192.627 15.844C193.227 15.244 193.935 14.776 194.751 14.44C195.591 14.104 196.539 13.936 197.595 13.936C198.219 13.936 198.831 13.996 199.431 14.116C200.055 14.236 200.595 14.404 201.051 14.62C202.059 14.596 202.995 14.536 203.859 14.44C204.747 14.344 205.575 14.188 206.343 13.972L206.523 14.116L206.271 16.816L206.091 16.996L203.391 16.708L203.355 16.816C203.739 17.248 204.039 17.824 204.255 18.544C204.471 19.264 204.579 19.948 204.579 20.596C204.579 21.388 204.423 22.144 204.111 22.864C203.823 23.584 203.391 24.22 202.815 24.772C202.239 25.3 201.519 25.732 200.655 26.068C199.791 26.38 198.795 26.536 197.667 26.536C197.523 26.536 197.331 26.536 197.091 26.536C196.875 26.512 196.707 26.5 196.587 26.5C196.179 26.668 195.867 26.896 195.651 27.184C195.459 27.472 195.363 27.712 195.363 27.904C195.363 28.432 195.927 28.768 197.055 28.912L200.547 29.272C201.339 29.368 202.071 29.536 202.743 29.776C203.439 30.016 204.039 30.34 204.543 30.748C205.071 31.132 205.479 31.6 205.767 32.152C206.055 32.728 206.199 33.388 206.199 34.132C206.199 34.828 206.043 35.524 205.731 36.22C205.419 36.94 204.951 37.576 204.327 38.128C203.703 38.656 202.839 39.088 201.735 39.424C200.631 39.76 199.359 39.928 197.919 39.928C196.623 39.928 195.495 39.784 194.535 39.496C193.599 39.232 192.807 38.86 192.159 38.38C191.535 37.924 191.067 37.396 190.755 36.796C190.443 36.22 190.287 35.62 190.287 34.996C190.287 33.988 190.611 33.088 191.259 32.296C191.931 31.528 192.783 30.988 193.815 30.676L193.851 30.568C193.275 30.352 192.807 30.088 192.447 29.776C192.111 29.44 191.943 29.032 191.943 28.552C191.943 27.928 192.195 27.424 192.699 27.04C193.203 26.656 193.743 26.392 194.319 26.248V26.104ZM197.739 24.052C198.219 24.052 198.639 23.956 198.999 23.764C199.383 23.572 199.707 23.32 199.971 23.008C200.235 22.696 200.427 22.336 200.547 21.928C200.691 21.496 200.763 21.052 200.763 20.596C200.763 20.116 200.691 19.636 200.547 19.156C200.403 18.676 200.199 18.244 199.935 17.86C199.671 17.452 199.335 17.128 198.927 16.888C198.519 16.624 198.051 16.492 197.523 16.492C197.019 16.492 196.587 16.612 196.227 16.852C195.867 17.068 195.555 17.356 195.291 17.716C195.051 18.076 194.871 18.484 194.751 18.94C194.631 19.396 194.571 19.84 194.571 20.272C194.571 20.728 194.631 21.184 194.751 21.64C194.895 22.096 195.099 22.504 195.363 22.864C195.627 23.224 195.951 23.512 196.335 23.728C196.743 23.944 197.211 24.052 197.739 24.052ZM196.587 31.792C196.059 31.816 195.603 31.912 195.219 32.08C194.835 32.248 194.511 32.464 194.247 32.728C193.983 33.016 193.779 33.316 193.635 33.628C193.515 33.964 193.455 34.288 193.455 34.6C193.455 35.296 193.875 35.86 194.715 36.292C195.555 36.748 196.695 36.976 198.135 36.976C199.431 36.976 200.523 36.76 201.411 36.328C202.299 35.92 202.743 35.308 202.743 34.492C202.743 34.036 202.635 33.664 202.419 33.376C202.203 33.088 201.915 32.848 201.555 32.656C201.195 32.488 200.787 32.356 200.331 32.26C199.899 32.164 199.455 32.092 198.999 32.044L196.587 31.792ZM113.544 71C113.376 71 113.1 71.012 112.716 71.036C112.332 71.06 111.936 71.084 111.528 71.108C111.12 71.132 110.724 71.156 110.34 71.18C109.956 71.204 109.68 71.216 109.512 71.216L109.44 71.072L109.548 69.704L109.728 69.56C110.016 69.56 110.352 69.548 110.736 69.524C111.12 69.476 111.42 69.38 111.636 69.236C111.828 69.092 112.008 68.864 112.176 68.552C112.344 68.24 112.464 67.772 112.536 67.148C112.56 66.788 112.572 66.248 112.572 65.528C112.596 64.808 112.608 63.74 112.608 62.324V54.764C112.608 54.284 112.608 53.744 112.608 53.144C112.608 52.52 112.584 51.908 112.536 51.308C112.488 50.66 112.368 50.192 112.176 49.904C112.008 49.616 111.828 49.4 111.636 49.256C111.42 49.064 111.192 48.956 110.952 48.932C110.736 48.908 110.328 48.896 109.728 48.896L109.548 48.752L109.44 47.384L109.512 47.24C109.68 47.24 109.896 47.252 110.16 47.276C110.448 47.3 110.736 47.324 111.024 47.348C111.336 47.372 111.648 47.396 111.96 47.42C112.272 47.444 112.56 47.456 112.824 47.456H115.56C115.824 47.456 116.124 47.456 116.46 47.456C116.796 47.432 117.132 47.42 117.468 47.42C117.828 47.42 118.152 47.42 118.44 47.42C118.728 47.396 118.956 47.384 119.124 47.384C120.42 47.384 121.524 47.516 122.436 47.78C123.372 48.044 124.128 48.416 124.704 48.896C125.28 49.376 125.7 49.952 125.964 50.624C126.252 51.296 126.396 52.04 126.396 52.856C126.396 53.576 126.276 54.212 126.036 54.764C125.82 55.316 125.52 55.808 125.136 56.24C124.776 56.648 124.356 57.008 123.876 57.32C123.396 57.608 122.904 57.86 122.4 58.076C124.368 58.388 125.892 59.048 126.972 60.056C128.052 61.064 128.592 62.456 128.592 64.232C128.592 65.432 128.376 66.464 127.944 67.328C127.512 68.168 126.9 68.864 126.108 69.416C125.34 69.944 124.416 70.34 123.336 70.604C122.256 70.868 121.068 71 119.772 71H113.544ZM116.604 60.128C116.604 60.632 116.604 61.232 116.604 61.928C116.604 62.624 116.604 63.296 116.604 63.944C116.628 64.592 116.64 65.18 116.64 65.708C116.664 66.236 116.688 66.596 116.712 66.788C116.76 67.436 116.892 67.832 117.108 67.976C117.324 68.12 117.612 68.192 117.972 68.192H118.728C119.304 68.192 119.928 68.144 120.6 68.048C121.296 67.928 121.944 67.724 122.544 67.436C123.144 67.148 123.648 66.752 124.056 66.248C124.464 65.744 124.668 65.096 124.668 64.304C124.668 63.632 124.512 63.044 124.2 62.54C123.888 62.012 123.456 61.568 122.904 61.208C122.352 60.848 121.704 60.584 120.96 60.416C120.24 60.224 119.448 60.128 118.584 60.128H116.604ZM117.54 57.716C118.308 57.716 118.92 57.668 119.376 57.572C119.856 57.476 120.372 57.224 120.924 56.816C121.452 56.48 121.884 56 122.22 55.376C122.556 54.728 122.724 53.972 122.724 53.108C122.724 52.196 122.364 51.5 121.644 51.02C120.924 50.516 119.904 50.264 118.584 50.264H116.784C116.712 51.32 116.664 52.112 116.64 52.64C116.616 53.144 116.604 53.6 116.604 54.008V56.24C116.604 56.792 116.628 57.176 116.676 57.392C116.724 57.608 116.904 57.716 117.216 57.716H117.54ZM145.166 67.904C144.518 68.936 143.714 69.776 142.754 70.424C141.794 71.072 140.582 71.396 139.118 71.396C138.446 71.396 137.786 71.312 137.138 71.144C136.514 70.976 135.938 70.712 135.41 70.352C134.906 69.992 134.462 69.524 134.078 68.948C133.694 68.348 133.418 67.628 133.25 66.788C133.202 66.572 133.154 66.332 133.106 66.068C133.082 65.804 133.058 65.468 133.034 65.06C133.034 64.628 133.022 64.112 132.998 63.512C132.998 62.888 132.998 62.12 132.998 61.208V57.968C132.998 57.704 132.938 57.44 132.818 57.176C132.698 56.912 132.602 56.744 132.53 56.672C132.29 56.384 131.99 56.216 131.63 56.168C131.27 56.12 130.898 56.096 130.514 56.096L130.406 55.952V54.728L130.514 54.62H132.278C132.83 54.62 133.418 54.62 134.042 54.62C134.666 54.596 135.218 54.548 135.698 54.476L136.958 54.296L137.174 54.98C137.126 55.076 137.09 55.256 137.066 55.52C137.042 55.76 137.018 56.024 136.994 56.312C136.97 56.6 136.958 56.876 136.958 57.14C136.958 57.404 136.958 57.608 136.958 57.752C136.958 58.064 136.946 58.448 136.922 58.904C136.922 59.336 136.91 59.792 136.886 60.272C136.886 60.728 136.874 61.172 136.85 61.604C136.85 62.036 136.85 62.396 136.85 62.684C136.85 63.308 136.874 63.944 136.922 64.592C136.97 65.216 137.066 65.792 137.21 66.32C137.45 67.16 137.81 67.784 138.29 68.192C138.794 68.576 139.49 68.768 140.378 68.768C141.098 68.768 141.734 68.648 142.286 68.408C142.862 68.168 143.354 67.88 143.762 67.544C144.17 67.208 144.506 66.848 144.77 66.464C145.034 66.056 145.202 65.696 145.274 65.384V61.784C145.274 60.68 145.25 59.828 145.202 59.228C145.178 58.628 145.142 58.16 145.094 57.824C145.046 57.512 144.974 57.26 144.878 57.068C144.806 56.876 144.734 56.744 144.662 56.672C144.398 56.384 144.062 56.216 143.654 56.168C143.246 56.12 142.922 56.096 142.682 56.096L142.538 55.952V54.728L142.682 54.62H143.33C143.57 54.62 143.882 54.62 144.266 54.62C144.674 54.62 145.094 54.62 145.526 54.62C145.958 54.596 146.378 54.584 146.786 54.584C147.194 54.56 147.542 54.524 147.83 54.476L149.09 54.296L149.306 54.98C149.186 55.676 149.102 56.588 149.054 57.716C149.03 58.316 149.006 58.808 148.982 59.192C148.982 59.552 148.982 59.852 148.982 60.092C148.982 60.332 148.982 60.524 148.982 60.668C148.982 60.788 148.982 60.908 148.982 61.028V63.98C148.982 65.3 149.018 66.464 149.09 67.472C149.138 67.928 149.198 68.3 149.27 68.588C149.342 68.852 149.474 69.068 149.666 69.236C149.882 69.428 150.134 69.548 150.422 69.596C150.71 69.62 151.058 69.632 151.466 69.632L151.61 69.776L151.682 71L151.61 71.108C151.154 71.06 150.71 71.024 150.277 71C149.846 71 149.342 71 148.766 71C148.19 71 147.578 71 146.93 71C146.282 71.024 145.658 71.06 145.058 71.108L144.842 70.388C144.914 70.124 144.986 69.776 145.058 69.344C145.154 68.888 145.226 68.432 145.274 67.976L145.166 67.904ZM161.906 60.92C162.914 61.16 163.73 61.484 164.354 61.892C164.978 62.3 165.446 62.744 165.758 63.224C166.094 63.704 166.31 64.196 166.406 64.7C166.526 65.204 166.586 65.672 166.586 66.104C166.586 66.872 166.43 67.58 166.118 68.228C165.806 68.876 165.35 69.44 164.75 69.92C164.174 70.376 163.466 70.736 162.626 71C161.786 71.264 160.838 71.396 159.782 71.396C158.678 71.396 157.646 71.276 156.686 71.036C155.726 70.82 154.97 70.556 154.418 70.244L153.986 69.776L154.526 65.348H155.714L155.822 65.492C155.822 66.548 156.146 67.388 156.794 68.012C157.442 68.612 158.402 68.912 159.674 68.912C160.346 68.912 160.91 68.852 161.366 68.732C161.846 68.588 162.218 68.42 162.482 68.228C162.77 68.012 162.974 67.784 163.094 67.544C163.214 67.28 163.274 67.04 163.274 66.824C163.274 66.656 163.262 66.476 163.238 66.284C163.214 66.092 163.142 65.9 163.021 65.708C162.902 65.492 162.722 65.288 162.482 65.096C162.242 64.88 161.894 64.7 161.438 64.556L157.982 63.692C157.19 63.5 156.542 63.224 156.038 62.864C155.534 62.504 155.126 62.108 154.813 61.676C154.526 61.22 154.322 60.74 154.202 60.236C154.106 59.732 154.058 59.228 154.058 58.724C154.058 57.932 154.214 57.236 154.526 56.636C154.838 56.012 155.258 55.508 155.786 55.124C156.338 54.716 156.974 54.416 157.694 54.224C158.414 54.008 159.194 53.9 160.034 53.9C161.09 53.9 162.062 54.032 162.95 54.296C163.838 54.536 164.522 54.8 165.002 55.088L165.47 55.52L165.074 59.012H163.958L163.814 58.904C163.814 58.376 163.67 57.944 163.382 57.608C163.118 57.248 162.782 56.972 162.374 56.78C161.99 56.564 161.582 56.42 161.15 56.348C160.718 56.252 160.334 56.204 159.998 56.204C159.038 56.204 158.354 56.408 157.946 56.816C157.538 57.224 157.334 57.68 157.334 58.184C157.334 58.616 157.466 59.036 157.729 59.444C158.018 59.852 158.558 60.152 159.35 60.344L161.906 60.92ZM178.169 71.144C178.001 71.144 177.749 71.132 177.413 71.108C177.077 71.084 176.717 71.06 176.333 71.036C175.949 71.036 175.589 71.024 175.253 71C174.917 71 174.665 71 174.497 71H172.553C172.385 71 172.121 71 171.761 71C171.425 71.024 171.065 71.036 170.681 71.036C170.321 71.06 169.961 71.084 169.601 71.108C169.265 71.132 169.013 71.144 168.845 71.144L168.809 71L168.881 69.776L168.989 69.632C169.349 69.632 169.721 69.62 170.105 69.596C170.489 69.548 170.777 69.428 170.969 69.236C171.137 69.068 171.257 68.852 171.329 68.588C171.401 68.324 171.461 67.952 171.509 67.472C171.533 67.304 171.545 67.136 171.545 66.968C171.569 66.8 171.581 66.62 171.581 66.428C171.605 66.236 171.617 66.008 171.617 65.744C171.617 65.48 171.617 65.156 171.617 64.772V60.704C171.617 60.248 171.617 59.888 171.617 59.624C171.617 59.336 171.605 59.096 171.581 58.904C171.581 58.712 171.569 58.544 171.545 58.4C171.545 58.232 171.533 58.04 171.509 57.824C171.461 57.584 171.389 57.356 171.293 57.14C171.197 56.924 171.113 56.78 171.041 56.708C170.801 56.396 170.501 56.216 170.141 56.168C169.781 56.12 169.409 56.096 169.025 56.096L168.881 55.952V54.728L169.025 54.62H170.861C171.413 54.62 172.001 54.62 172.625 54.62C173.249 54.596 173.801 54.548 174.281 54.476L175.541 54.296L175.757 54.98C175.709 55.076 175.661 55.232 175.613 55.448C175.589 55.64 175.565 55.856 175.541 56.096C175.541 56.312 175.529 56.54 175.505 56.78C175.505 56.996 175.505 57.176 175.505 57.32C175.505 57.512 175.493 57.692 175.469 57.86C175.469 58.004 175.469 58.184 175.469 58.4C175.469 58.592 175.457 58.844 175.433 59.156C175.433 59.468 175.433 59.852 175.433 60.308V64.34C175.433 64.82 175.433 65.216 175.433 65.528C175.457 65.816 175.469 66.068 175.469 66.284C175.493 66.5 175.505 66.704 175.505 66.896C175.529 67.064 175.553 67.256 175.577 67.472C175.625 67.976 175.673 68.36 175.721 68.624C175.793 68.864 175.925 69.068 176.117 69.236C176.309 69.428 176.573 69.548 176.909 69.596C177.269 69.62 177.629 69.632 177.989 69.632L178.169 69.812L178.241 71L178.169 71.144ZM170.861 48.932C170.861 48.644 170.921 48.356 171.041 48.068C171.161 47.78 171.329 47.528 171.545 47.312C171.761 47.072 172.001 46.892 172.265 46.772C172.553 46.628 172.853 46.556 173.165 46.556C173.765 46.556 174.305 46.808 174.785 47.312C175.289 47.792 175.541 48.332 175.541 48.932C175.541 49.244 175.469 49.544 175.325 49.832C175.205 50.096 175.025 50.336 174.785 50.552C174.569 50.768 174.317 50.936 174.029 51.056C173.741 51.176 173.453 51.236 173.165 51.236C172.541 51.236 172.001 51.008 171.545 50.552C171.089 50.096 170.861 49.556 170.861 48.932ZM186.509 57.572C187.061 56.516 187.817 55.64 188.777 54.944C189.737 54.248 190.865 53.9 192.161 53.9C192.905 53.9 193.637 53.996 194.357 54.188C195.077 54.38 195.725 54.68 196.301 55.088C196.901 55.496 197.393 56.024 197.777 56.672C198.185 57.296 198.449 58.04 198.569 58.904C198.641 59.528 198.677 60.188 198.677 60.884C198.701 61.58 198.713 62.276 198.713 62.972C198.737 63.788 198.749 64.544 198.749 65.24C198.749 65.912 198.749 66.656 198.749 67.472C198.749 68.024 198.809 68.444 198.929 68.732C199.073 68.996 199.241 69.176 199.433 69.272C199.697 69.416 199.973 69.512 200.261 69.56C200.573 69.608 200.921 69.632 201.305 69.632L201.413 69.776L201.485 71L201.413 71.144C200.909 71.096 200.345 71.06 199.721 71.036C199.121 71.012 198.533 71 197.957 71C197.381 71 196.805 71 196.229 71C195.653 71.024 195.113 71.06 194.609 71.108L194.357 70.388C194.429 70.076 194.489 69.608 194.537 68.984C194.609 68.36 194.657 67.856 194.681 67.472C194.729 66.56 194.765 65.708 194.789 64.916C194.813 64.124 194.825 63.416 194.825 62.792C194.825 62.24 194.813 61.64 194.789 60.992C194.765 60.344 194.681 59.78 194.537 59.3C194.345 58.532 193.949 57.968 193.349 57.608C192.773 57.224 192.101 57.032 191.333 57.032C190.613 57.032 189.953 57.164 189.353 57.428C188.753 57.692 188.237 58.016 187.805 58.4C187.397 58.76 187.073 59.144 186.833 59.552C186.593 59.96 186.473 60.32 186.473 60.632V64.34C186.473 64.82 186.473 65.216 186.473 65.528C186.473 65.816 186.473 66.068 186.473 66.284C186.497 66.5 186.509 66.704 186.509 66.896C186.533 67.064 186.557 67.256 186.581 67.472C186.629 67.976 186.725 68.36 186.869 68.624C187.037 68.864 187.217 69.068 187.409 69.236C187.601 69.428 187.829 69.548 188.093 69.596C188.357 69.62 188.669 69.632 189.029 69.632L189.209 69.812L189.281 71L189.209 71.144C189.041 71.144 188.789 71.132 188.453 71.108C188.117 71.084 187.757 71.06 187.373 71.036C186.989 71.036 186.629 71.024 186.293 71C185.957 71 185.705 71 185.537 71H183.557C183.389 71 183.125 71 182.765 71C182.429 71.024 182.069 71.036 181.685 71.036C181.325 71.06 180.965 71.084 180.605 71.108C180.269 71.132 180.017 71.144 179.849 71.144L179.813 71L179.885 69.776L179.993 69.632C180.377 69.632 180.713 69.62 181.001 69.596C181.313 69.548 181.565 69.428 181.757 69.236C181.925 69.068 182.081 68.852 182.225 68.588C182.369 68.324 182.465 67.952 182.513 67.472C182.537 67.304 182.549 67.136 182.549 66.968C182.573 66.8 182.585 66.62 182.585 66.428C182.609 66.236 182.621 66.008 182.621 65.744C182.621 65.48 182.621 65.156 182.621 64.772V61.064C182.621 60.608 182.621 60.224 182.621 59.912C182.621 59.6 182.609 59.324 182.585 59.084C182.585 58.844 182.573 58.628 182.549 58.436C182.549 58.244 182.537 58.04 182.513 57.824C182.465 57.584 182.393 57.356 182.297 57.14C182.201 56.924 182.117 56.78 182.045 56.708C181.805 56.396 181.505 56.216 181.145 56.168C180.785 56.12 180.413 56.096 180.029 56.096L179.885 55.952V54.728L180.029 54.62H181.865C182.417 54.62 183.005 54.62 183.629 54.62C184.277 54.596 184.841 54.548 185.321 54.476L186.581 54.296L186.797 54.98C186.605 55.244 186.485 55.616 186.437 56.096C186.413 56.552 186.401 57.02 186.401 57.5L186.509 57.572ZM218.681 61.82L217.817 62.468C216.521 62.468 215.237 62.48 213.965 62.504C212.717 62.528 211.433 62.54 210.113 62.54H207.161C207.137 62.708 207.125 62.876 207.125 63.044C207.125 63.188 207.125 63.332 207.125 63.476C207.125 64.1 207.233 64.724 207.449 65.348C207.665 65.972 208.001 66.536 208.457 67.04C208.937 67.52 209.537 67.916 210.257 68.228C210.977 68.516 211.853 68.66 212.885 68.66C213.629 68.66 214.409 68.564 215.225 68.372C216.065 68.156 216.845 67.88 217.565 67.544L218.177 67.796V69.092L217.817 69.488C217.241 69.944 216.389 70.376 215.261 70.784C214.157 71.192 212.957 71.396 211.661 71.396C210.389 71.396 209.225 71.192 208.169 70.784C207.137 70.352 206.237 69.752 205.469 68.984C204.725 68.216 204.137 67.304 203.705 66.248C203.297 65.192 203.093 64.016 203.093 62.72C203.093 61.4 203.309 60.2 203.741 59.12C204.173 58.04 204.761 57.116 205.505 56.348C206.273 55.58 207.161 54.98 208.169 54.548C209.201 54.116 210.305 53.9 211.481 53.9C212.105 53.9 212.801 53.984 213.569 54.152C214.361 54.32 215.117 54.644 215.837 55.124C216.557 55.58 217.205 56.24 217.781 57.104C218.357 57.944 218.753 59.06 218.969 60.452L218.681 61.82ZM211.517 56.6C210.341 56.6 209.393 56.96 208.673 57.68C207.977 58.376 207.533 59.192 207.341 60.128H209.141C209.981 60.128 210.809 60.116 211.625 60.092C212.441 60.044 213.269 60.02 214.109 60.02C214.421 60.02 214.649 59.936 214.793 59.768C214.937 59.576 215.009 59.384 215.009 59.192C215.009 58.472 214.661 57.86 213.965 57.356C213.269 56.852 212.453 56.6 211.517 56.6ZM229.511 60.92C230.519 61.16 231.335 61.484 231.959 61.892C232.583 62.3 233.051 62.744 233.363 63.224C233.699 63.704 233.915 64.196 234.011 64.7C234.131 65.204 234.191 65.672 234.191 66.104C234.191 66.872 234.035 67.58 233.723 68.228C233.411 68.876 232.955 69.44 232.355 69.92C231.779 70.376 231.071 70.736 230.231 71C229.391 71.264 228.443 71.396 227.387 71.396C226.283 71.396 225.251 71.276 224.291 71.036C223.331 70.82 222.575 70.556 222.023 70.244L221.591 69.776L222.131 65.348H223.319L223.427 65.492C223.427 66.548 223.751 67.388 224.399 68.012C225.047 68.612 226.007 68.912 227.279 68.912C227.951 68.912 228.515 68.852 228.971 68.732C229.451 68.588 229.823 68.42 230.087 68.228C230.375 68.012 230.579 67.784 230.699 67.544C230.819 67.28 230.879 67.04 230.879 66.824C230.879 66.656 230.867 66.476 230.843 66.284C230.819 66.092 230.747 65.9 230.627 65.708C230.507 65.492 230.327 65.288 230.087 65.096C229.847 64.88 229.499 64.7 229.043 64.556L225.587 63.692C224.795 63.5 224.147 63.224 223.643 62.864C223.139 62.504 222.731 62.108 222.419 61.676C222.131 61.22 221.927 60.74 221.807 60.236C221.711 59.732 221.663 59.228 221.663 58.724C221.663 57.932 221.819 57.236 222.131 56.636C222.443 56.012 222.863 55.508 223.391 55.124C223.943 54.716 224.579 54.416 225.299 54.224C226.019 54.008 226.799 53.9 227.639 53.9C228.695 53.9 229.667 54.032 230.555 54.296C231.443 54.536 232.127 54.8 232.607 55.088L233.075 55.52L232.679 59.012H231.563L231.419 58.904C231.419 58.376 231.275 57.944 230.987 57.608C230.723 57.248 230.387 56.972 229.979 56.78C229.595 56.564 229.187 56.42 228.755 56.348C228.323 56.252 227.939 56.204 227.603 56.204C226.643 56.204 225.959 56.408 225.551 56.816C225.143 57.224 224.939 57.68 224.939 58.184C224.939 58.616 225.071 59.036 225.335 59.444C225.623 59.852 226.163 60.152 226.955 60.344L229.511 60.92ZM244.874 60.92C245.882 61.16 246.698 61.484 247.322 61.892C247.946 62.3 248.414 62.744 248.726 63.224C249.062 63.704 249.278 64.196 249.374 64.7C249.494 65.204 249.554 65.672 249.554 66.104C249.554 66.872 249.398 67.58 249.086 68.228C248.774 68.876 248.318 69.44 247.718 69.92C247.142 70.376 246.434 70.736 245.594 71C244.754 71.264 243.806 71.396 242.75 71.396C241.646 71.396 240.614 71.276 239.654 71.036C238.694 70.82 237.938 70.556 237.386 70.244L236.954 69.776L237.494 65.348H238.682L238.79 65.492C238.79 66.548 239.114 67.388 239.762 68.012C240.41 68.612 241.37 68.912 242.642 68.912C243.314 68.912 243.878 68.852 244.334 68.732C244.814 68.588 245.186 68.42 245.45 68.228C245.738 68.012 245.942 67.784 246.062 67.544C246.182 67.28 246.242 67.04 246.242 66.824C246.242 66.656 246.23 66.476 246.206 66.284C246.182 66.092 246.11 65.9 245.99 65.708C245.87 65.492 245.69 65.288 245.45 65.096C245.21 64.88 244.862 64.7 244.406 64.556L240.95 63.692C240.158 63.5 239.51 63.224 239.006 62.864C238.502 62.504 238.094 62.108 237.782 61.676C237.494 61.22 237.29 60.74 237.17 60.236C237.074 59.732 237.026 59.228 237.026 58.724C237.026 57.932 237.182 57.236 237.494 56.636C237.806 56.012 238.226 55.508 238.754 55.124C239.306 54.716 239.942 54.416 240.662 54.224C241.382 54.008 242.162 53.9 243.002 53.9C244.058 53.9 245.03 54.032 245.918 54.296C246.806 54.536 247.49 54.8 247.97 55.088L248.438 55.52L248.042 59.012H246.926L246.782 58.904C246.782 58.376 246.638 57.944 246.35 57.608C246.086 57.248 245.75 56.972 245.342 56.78C244.958 56.564 244.55 56.42 244.118 56.348C243.686 56.252 243.302 56.204 242.966 56.204C242.006 56.204 241.322 56.408 240.914 56.816C240.506 57.224 240.302 57.68 240.302 58.184C240.302 58.616 240.434 59.036 240.698 59.444C240.986 59.852 241.526 60.152 242.318 60.344L244.874 60.92ZM129.924 110.1C128.724 110.46 127.464 110.76 126.144 111C124.824 111.264 123.444 111.396 122.004 111.396C119.916 111.396 118.092 111.084 116.532 110.46C114.996 109.812 113.712 108.936 112.68 107.832C111.672 106.728 110.916 105.444 110.412 103.98C109.908 102.516 109.656 100.968 109.656 99.336C109.656 97.608 109.92 96 110.448 94.512C111 93.024 111.804 91.728 112.86 90.624C113.916 89.52 115.224 88.656 116.784 88.032C118.344 87.384 120.156 87.06 122.22 87.06C122.676 87.06 123.204 87.084 123.804 87.132C124.428 87.18 125.076 87.264 125.748 87.384C126.42 87.504 127.104 87.672 127.8 87.888C128.52 88.08 129.204 88.332 129.852 88.644L129.924 88.968L129.312 92.892H127.692L127.548 92.784C127.428 91.968 126.936 91.308 126.072 90.804C125.232 90.276 123.888 90.012 122.04 90.012C120.888 90.012 119.868 90.12 118.98 90.336C118.116 90.528 117.312 90.912 116.568 91.488C116.04 91.896 115.608 92.388 115.272 92.964C114.936 93.516 114.672 94.128 114.48 94.8C114.288 95.472 114.156 96.18 114.084 96.924C114.012 97.668 113.976 98.412 113.976 99.156C113.976 100.62 114.168 101.928 114.552 103.08C114.96 104.232 115.512 105.204 116.208 105.996C116.904 106.788 117.72 107.4 118.656 107.832C119.616 108.24 120.648 108.444 121.752 108.444C122.088 108.444 122.448 108.432 122.832 108.408C123.24 108.36 123.636 108.3 124.02 108.228C124.404 108.156 124.74 108.072 125.028 107.976C125.34 107.88 125.556 107.784 125.676 107.688C125.82 107.616 125.904 107.52 125.928 107.4C125.952 107.28 125.964 107.124 125.964 106.932C125.964 106.764 125.964 106.488 125.964 106.104C125.964 105.72 125.94 105.42 125.892 105.204C125.844 104.58 125.712 104.112 125.496 103.8C125.304 103.464 125.136 103.248 124.992 103.152C124.776 102.96 124.452 102.852 124.02 102.828C123.588 102.804 123.18 102.792 122.796 102.792L122.616 102.648L122.508 101.136L122.58 100.992C122.748 100.992 123.012 101.004 123.372 101.028C123.756 101.052 124.14 101.076 124.524 101.1C124.932 101.124 125.316 101.148 125.676 101.172C126.06 101.196 126.336 101.208 126.504 101.208H129.024C129.192 101.208 129.42 101.196 129.708 101.172C129.996 101.148 130.296 101.124 130.608 101.1C130.92 101.076 131.22 101.052 131.508 101.028C131.796 101.004 132.024 100.992 132.192 100.992L132.264 101.136L132.192 102.72L132.012 102.864C131.316 102.864 130.824 103.068 130.536 103.476C130.272 103.86 130.116 104.436 130.068 105.204C130.02 105.684 129.984 106.2 129.96 106.752C129.96 107.28 129.96 107.676 129.96 107.94C129.96 108.3 129.96 108.696 129.96 109.128C129.984 109.536 130.02 109.8 130.068 109.92L129.924 110.1ZM148.505 107.904C147.857 108.936 147.053 109.776 146.093 110.424C145.133 111.072 143.921 111.396 142.457 111.396C141.785 111.396 141.125 111.312 140.477 111.144C139.853 110.976 139.277 110.712 138.749 110.352C138.245 109.992 137.801 109.524 137.417 108.948C137.033 108.348 136.757 107.628 136.589 106.788C136.541 106.572 136.493 106.332 136.445 106.068C136.421 105.804 136.397 105.468 136.373 105.06C136.373 104.628 136.361 104.112 136.337 103.512C136.337 102.888 136.337 102.12 136.337 101.208V97.968C136.337 97.704 136.277 97.44 136.157 97.176C136.037 96.912 135.941 96.744 135.869 96.672C135.629 96.384 135.329 96.216 134.969 96.168C134.609 96.12 134.237 96.096 133.853 96.096L133.745 95.952V94.728L133.853 94.62H135.617C136.169 94.62 136.757 94.62 137.381 94.62C138.005 94.596 138.557 94.548 139.037 94.476L140.297 94.296L140.513 94.98C140.465 95.076 140.429 95.256 140.405 95.52C140.381 95.76 140.357 96.024 140.333 96.312C140.309 96.6 140.297 96.876 140.297 97.14C140.297 97.404 140.297 97.608 140.297 97.752C140.297 98.064 140.285 98.448 140.261 98.904C140.261 99.336 140.249 99.792 140.225 100.272C140.225 100.728 140.213 101.172 140.189 101.604C140.189 102.036 140.189 102.396 140.189 102.684C140.189 103.308 140.213 103.944 140.261 104.592C140.309 105.216 140.405 105.792 140.549 106.32C140.789 107.16 141.149 107.784 141.629 108.192C142.133 108.576 142.829 108.768 143.717 108.768C144.437 108.768 145.073 108.648 145.625 108.408C146.201 108.168 146.693 107.88 147.101 107.544C147.509 107.208 147.845 106.848 148.109 106.464C148.373 106.056 148.541 105.696 148.613 105.384V101.784C148.613 100.68 148.589 99.828 148.541 99.228C148.517 98.628 148.481 98.16 148.433 97.824C148.385 97.512 148.313 97.26 148.217 97.068C148.145 96.876 148.073 96.744 148.001 96.672C147.737 96.384 147.401 96.216 146.993 96.168C146.585 96.12 146.261 96.096 146.021 96.096L145.877 95.952V94.728L146.021 94.62H146.669C146.909 94.62 147.221 94.62 147.605 94.62C148.013 94.62 148.433 94.62 148.865 94.62C149.297 94.596 149.717 94.584 150.125 94.584C150.533 94.56 150.881 94.524 151.169 94.476L152.429 94.296L152.645 94.98C152.525 95.676 152.441 96.588 152.393 97.716C152.369 98.316 152.345 98.808 152.321 99.192C152.321 99.552 152.321 99.852 152.321 100.092C152.321 100.332 152.321 100.524 152.321 100.668C152.321 100.788 152.321 100.908 152.321 101.028V103.98C152.321 105.3 152.357 106.464 152.429 107.472C152.477 107.928 152.537 108.3 152.609 108.588C152.681 108.852 152.813 109.068 153.005 109.236C153.221 109.428 153.473 109.548 153.761 109.596C154.049 109.62 154.397 109.632 154.805 109.632L154.949 109.776L155.021 111L154.949 111.108C154.493 111.06 154.049 111.024 153.617 111C153.185 111 152.681 111 152.105 111C151.529 111 150.917 111 150.269 111C149.621 111.024 148.997 111.06 148.397 111.108L148.181 110.388C148.253 110.124 148.325 109.776 148.397 109.344C148.493 108.888 148.565 108.432 148.613 107.976L148.505 107.904ZM166.145 111.144C165.977 111.144 165.725 111.132 165.389 111.108C165.053 111.084 164.693 111.06 164.309 111.036C163.925 111.036 163.565 111.024 163.229 111C162.893 111 162.641 111 162.473 111H160.529C160.361 111 160.097 111 159.737 111C159.401 111.024 159.041 111.036 158.657 111.036C158.297 111.06 157.937 111.084 157.577 111.108C157.241 111.132 156.989 111.144 156.821 111.144L156.785 111L156.857 109.776L156.965 109.632C157.325 109.632 157.697 109.62 158.081 109.596C158.465 109.548 158.753 109.428 158.945 109.236C159.113 109.068 159.233 108.852 159.305 108.588C159.377 108.324 159.437 107.952 159.485 107.472C159.509 107.304 159.521 107.136 159.521 106.968C159.545 106.8 159.557 106.62 159.557 106.428C159.581 106.236 159.593 106.008 159.593 105.744C159.593 105.48 159.593 105.156 159.593 104.772V100.704C159.593 100.248 159.593 99.888 159.593 99.624C159.593 99.336 159.581 99.096 159.557 98.904C159.557 98.712 159.545 98.544 159.521 98.4C159.521 98.232 159.509 98.04 159.485 97.824C159.437 97.584 159.365 97.356 159.269 97.14C159.173 96.924 159.089 96.78 159.017 96.708C158.777 96.396 158.477 96.216 158.117 96.168C157.757 96.12 157.385 96.096 157.001 96.096L156.857 95.952V94.728L157.001 94.62H158.837C159.389 94.62 159.977 94.62 160.601 94.62C161.225 94.596 161.777 94.548 162.257 94.476L163.517 94.296L163.733 94.98C163.685 95.076 163.637 95.232 163.589 95.448C163.565 95.64 163.541 95.856 163.517 96.096C163.517 96.312 163.505 96.54 163.481 96.78C163.481 96.996 163.481 97.176 163.481 97.32C163.481 97.512 163.469 97.692 163.445 97.86C163.445 98.004 163.445 98.184 163.445 98.4C163.445 98.592 163.433 98.844 163.409 99.156C163.409 99.468 163.409 99.852 163.409 100.308V104.34C163.409 104.82 163.409 105.216 163.409 105.528C163.433 105.816 163.445 106.068 163.445 106.284C163.469 106.5 163.481 106.704 163.481 106.896C163.505 107.064 163.529 107.256 163.553 107.472C163.601 107.976 163.649 108.36 163.697 108.624C163.769 108.864 163.901 109.068 164.093 109.236C164.285 109.428 164.549 109.548 164.885 109.596C165.245 109.62 165.605 109.632 165.965 109.632L166.145 109.812L166.217 111L166.145 111.144ZM158.837 88.932C158.837 88.644 158.897 88.356 159.017 88.068C159.137 87.78 159.305 87.528 159.521 87.312C159.737 87.072 159.977 86.892 160.241 86.772C160.529 86.628 160.829 86.556 161.141 86.556C161.741 86.556 162.281 86.808 162.761 87.312C163.265 87.792 163.517 88.332 163.517 88.932C163.517 89.244 163.445 89.544 163.301 89.832C163.181 90.096 163.001 90.336 162.761 90.552C162.545 90.768 162.293 90.936 162.005 91.056C161.717 91.176 161.429 91.236 161.141 91.236C160.517 91.236 159.977 91.008 159.521 90.552C159.065 90.096 158.837 89.556 158.837 88.932ZM181.649 110.388C181.649 110.22 181.685 109.908 181.757 109.452C181.853 108.972 181.925 108.552 181.973 108.192L181.937 108.048C181.313 109.152 180.449 109.992 179.345 110.568C178.241 111.12 177.089 111.396 175.889 111.396C174.569 111.396 173.417 111.156 172.433 110.676C171.473 110.196 170.669 109.56 170.021 108.768C169.373 107.976 168.893 107.064 168.581 106.032C168.269 105 168.113 103.932 168.113 102.828C168.113 101.22 168.365 99.852 168.869 98.724C169.397 97.572 170.057 96.648 170.849 95.952C171.641 95.232 172.505 94.716 173.441 94.404C174.401 94.068 175.325 93.9 176.213 93.9C177.293 93.9 178.361 94.152 179.417 94.656C180.473 95.16 181.337 95.988 182.009 97.14L182.081 96.996C182.033 96.3 182.009 95.592 182.009 94.872C182.009 94.128 182.009 93.408 182.009 92.712C182.009 91.968 182.009 91.356 182.009 90.876C182.009 90.372 181.997 89.952 181.973 89.616C181.973 89.28 181.961 88.98 181.937 88.716C181.937 88.452 181.925 88.176 181.901 87.888C181.877 87.648 181.793 87.42 181.649 87.204C181.505 86.988 181.397 86.844 181.325 86.772C180.989 86.508 180.653 86.34 180.317 86.268C180.005 86.196 179.633 86.16 179.201 86.16L179.057 86.016V84.828L179.201 84.684H181.253C181.805 84.684 182.381 84.684 182.981 84.684C183.605 84.66 184.157 84.612 184.637 84.54L185.897 84.36L186.113 85.044C186.065 85.14 186.017 85.32 185.969 85.584C185.945 85.824 185.921 86.088 185.897 86.376C185.897 86.664 185.885 86.94 185.861 87.204C185.861 87.468 185.861 87.672 185.861 87.816C185.861 88.176 185.849 88.524 185.825 88.86C185.825 89.172 185.825 89.544 185.825 89.976C185.825 90.384 185.813 90.9 185.789 91.524C185.789 92.124 185.789 92.904 185.789 93.864V101.712C185.789 102.72 185.789 103.536 185.789 104.16C185.813 104.76 185.825 105.264 185.825 105.672C185.849 106.08 185.861 106.44 185.861 106.752C185.885 107.04 185.909 107.4 185.933 107.832C185.981 108.264 186.041 108.576 186.113 108.768C186.209 108.96 186.341 109.116 186.509 109.236C186.701 109.428 186.965 109.548 187.301 109.596C187.637 109.62 187.949 109.632 188.237 109.632L188.381 109.776L188.453 111L188.381 111.144C187.973 111.096 187.529 111.06 187.049 111.036C186.569 111.012 186.113 111 185.681 111C185.033 111 184.385 111 183.737 111C183.089 111.024 182.477 111.06 181.901 111.108L181.649 110.388ZM172.289 102.792C172.289 103.512 172.373 104.22 172.541 104.916C172.733 105.588 173.009 106.2 173.369 106.752C173.729 107.28 174.185 107.712 174.737 108.048C175.313 108.36 175.985 108.516 176.753 108.516C177.569 108.516 178.289 108.384 178.913 108.12C179.561 107.832 180.101 107.496 180.533 107.112C180.989 106.704 181.337 106.284 181.577 105.852C181.841 105.42 181.985 105.048 182.009 104.736V100.74C181.961 100.428 181.817 100.056 181.577 99.624C181.361 99.168 181.037 98.736 180.605 98.328C180.197 97.92 179.681 97.572 179.057 97.284C178.433 96.972 177.689 96.816 176.825 96.816C176.033 96.816 175.349 96.996 174.773 97.356C174.197 97.692 173.717 98.136 173.333 98.688C172.973 99.24 172.709 99.876 172.541 100.596C172.373 101.316 172.289 102.048 172.289 102.792ZM205.954 101.82L205.09 102.468C203.794 102.468 202.51 102.48 201.238 102.504C199.99 102.528 198.706 102.54 197.386 102.54H194.434C194.41 102.708 194.398 102.876 194.398 103.044C194.398 103.188 194.398 103.332 194.398 103.476C194.398 104.1 194.506 104.724 194.722 105.348C194.938 105.972 195.274 106.536 195.73 107.04C196.21 107.52 196.81 107.916 197.53 108.228C198.25 108.516 199.126 108.66 200.158 108.66C200.902 108.66 201.682 108.564 202.498 108.372C203.338 108.156 204.118 107.88 204.838 107.544L205.45 107.796V109.092L205.09 109.488C204.514 109.944 203.662 110.376 202.534 110.784C201.43 111.192 200.23 111.396 198.934 111.396C197.662 111.396 196.498 111.192 195.442 110.784C194.41 110.352 193.51 109.752 192.742 108.984C191.998 108.216 191.41 107.304 190.978 106.248C190.57 105.192 190.366 104.016 190.366 102.72C190.366 101.4 190.582 100.2 191.014 99.12C191.446 98.04 192.034 97.116 192.778 96.348C193.546 95.58 194.434 94.98 195.442 94.548C196.474 94.116 197.578 93.9 198.754 93.9C199.378 93.9 200.074 93.984 200.842 94.152C201.634 94.32 202.39 94.644 203.11 95.124C203.83 95.58 204.478 96.24 205.054 97.104C205.63 97.944 206.026 99.06 206.242 100.452L205.954 101.82ZM198.79 96.6C197.614 96.6 196.666 96.96 195.946 97.68C195.25 98.376 194.806 99.192 194.614 100.128H196.414C197.254 100.128 198.082 100.116 198.898 100.092C199.714 100.044 200.542 100.02 201.382 100.02C201.694 100.02 201.922 99.936 202.066 99.768C202.21 99.576 202.282 99.384 202.282 99.192C202.282 98.472 201.934 97.86 201.238 97.356C200.542 96.852 199.726 96.6 198.79 96.6ZM118.368 151.144C118.2 151.144 117.948 151.132 117.612 151.108C117.276 151.084 116.916 151.06 116.532 151.036C116.148 151.036 115.788 151.024 115.452 151C115.116 151 114.864 151 114.696 151H112.752C112.584 151 112.32 151 111.96 151C111.624 151.024 111.264 151.036 110.88 151.036C110.52 151.06 110.16 151.084 109.8 151.108C109.464 151.132 109.212 151.144 109.044 151.144L109.008 151L109.08 149.776L109.188 149.632C109.548 149.632 109.92 149.62 110.304 149.596C110.688 149.548 110.976 149.428 111.168 149.236C111.336 149.068 111.456 148.852 111.528 148.588C111.6 148.324 111.66 147.952 111.708 147.472C111.732 147.304 111.744 147.136 111.744 146.968C111.768 146.8 111.78 146.62 111.78 146.428C111.804 146.236 111.816 146.008 111.816 145.744C111.816 145.48 111.816 145.156 111.816 144.772V140.704C111.816 140.248 111.816 139.888 111.816 139.624C111.816 139.336 111.804 139.096 111.78 138.904C111.78 138.712 111.768 138.544 111.744 138.4C111.744 138.232 111.732 138.04 111.708 137.824C111.66 137.584 111.588 137.356 111.492 137.14C111.396 136.924 111.312 136.78 111.24 136.708C111 136.396 110.7 136.216 110.34 136.168C109.98 136.12 109.608 136.096 109.224 136.096L109.08 135.952V134.728L109.224 134.62H111.06C111.612 134.62 112.2 134.62 112.824 134.62C113.448 134.596 114 134.548 114.48 134.476L115.74 134.296L115.956 134.98C115.908 135.076 115.86 135.232 115.812 135.448C115.788 135.64 115.764 135.856 115.74 136.096C115.74 136.312 115.728 136.54 115.704 136.78C115.704 136.996 115.704 137.176 115.704 137.32C115.704 137.512 115.692 137.692 115.668 137.86C115.668 138.004 115.668 138.184 115.668 138.4C115.668 138.592 115.656 138.844 115.632 139.156C115.632 139.468 115.632 139.852 115.632 140.308V144.34C115.632 144.82 115.632 145.216 115.632 145.528C115.656 145.816 115.668 146.068 115.668 146.284C115.692 146.5 115.704 146.704 115.704 146.896C115.728 147.064 115.752 147.256 115.776 147.472C115.824 147.976 115.872 148.36 115.92 148.624C115.992 148.864 116.124 149.068 116.316 149.236C116.508 149.428 116.772 149.548 117.108 149.596C117.468 149.62 117.828 149.632 118.188 149.632L118.368 149.812L118.44 151L118.368 151.144ZM111.06 128.932C111.06 128.644 111.12 128.356 111.24 128.068C111.36 127.78 111.528 127.528 111.744 127.312C111.96 127.072 112.2 126.892 112.464 126.772C112.752 126.628 113.052 126.556 113.364 126.556C113.964 126.556 114.504 126.808 114.984 127.312C115.488 127.792 115.74 128.332 115.74 128.932C115.74 129.244 115.668 129.544 115.524 129.832C115.404 130.096 115.224 130.336 114.984 130.552C114.768 130.768 114.516 130.936 114.228 131.056C113.94 131.176 113.652 131.236 113.364 131.236C112.74 131.236 112.2 131.008 111.744 130.552C111.288 130.096 111.06 129.556 111.06 128.932ZM126.708 137.572C127.26 136.516 128.016 135.64 128.976 134.944C129.936 134.248 131.064 133.9 132.36 133.9C133.104 133.9 133.836 133.996 134.556 134.188C135.276 134.38 135.924 134.68 136.5 135.088C137.1 135.496 137.592 136.024 137.976 136.672C138.384 137.296 138.648 138.04 138.768 138.904C138.84 139.528 138.876 140.188 138.876 140.884C138.9 141.58 138.912 142.276 138.912 142.972C138.936 143.788 138.948 144.544 138.948 145.24C138.948 145.912 138.948 146.656 138.948 147.472C138.948 148.024 139.008 148.444 139.128 148.732C139.272 148.996 139.44 149.176 139.632 149.272C139.896 149.416 140.172 149.512 140.46 149.56C140.772 149.608 141.12 149.632 141.504 149.632L141.612 149.776L141.684 151L141.612 151.144C141.108 151.096 140.544 151.06 139.92 151.036C139.32 151.012 138.732 151 138.156 151C137.58 151 137.004 151 136.428 151C135.852 151.024 135.312 151.06 134.808 151.108L134.556 150.388C134.628 150.076 134.688 149.608 134.736 148.984C134.808 148.36 134.856 147.856 134.88 147.472C134.928 146.56 134.964 145.708 134.988 144.916C135.012 144.124 135.024 143.416 135.024 142.792C135.024 142.24 135.012 141.64 134.988 140.992C134.964 140.344 134.88 139.78 134.736 139.3C134.544 138.532 134.148 137.968 133.548 137.608C132.972 137.224 132.3 137.032 131.532 137.032C130.812 137.032 130.152 137.164 129.552 137.428C128.952 137.692 128.436 138.016 128.004 138.4C127.596 138.76 127.272 139.144 127.032 139.552C126.792 139.96 126.672 140.32 126.672 140.632V144.34C126.672 144.82 126.672 145.216 126.672 145.528C126.672 145.816 126.672 146.068 126.672 146.284C126.696 146.5 126.708 146.704 126.708 146.896C126.732 147.064 126.756 147.256 126.78 147.472C126.828 147.976 126.924 148.36 127.068 148.624C127.236 148.864 127.416 149.068 127.608 149.236C127.8 149.428 128.028 149.548 128.292 149.596C128.556 149.62 128.868 149.632 129.228 149.632L129.408 149.812L129.48 151L129.408 151.144C129.24 151.144 128.988 151.132 128.652 151.108C128.316 151.084 127.956 151.06 127.572 151.036C127.188 151.036 126.828 151.024 126.492 151C126.156 151 125.904 151 125.736 151H123.756C123.588 151 123.324 151 122.964 151C122.628 151.024 122.268 151.036 121.884 151.036C121.524 151.06 121.164 151.084 120.804 151.108C120.468 151.132 120.216 151.144 120.048 151.144L120.012 151L120.084 149.776L120.192 149.632C120.576 149.632 120.912 149.62 121.2 149.596C121.512 149.548 121.764 149.428 121.956 149.236C122.124 149.068 122.28 148.852 122.424 148.588C122.568 148.324 122.664 147.952 122.712 147.472C122.736 147.304 122.748 147.136 122.748 146.968C122.772 146.8 122.784 146.62 122.784 146.428C122.808 146.236 122.82 146.008 122.82 145.744C122.82 145.48 122.82 145.156 122.82 144.772V141.064C122.82 140.608 122.82 140.224 122.82 139.912C122.82 139.6 122.808 139.324 122.784 139.084C122.784 138.844 122.772 138.628 122.748 138.436C122.748 138.244 122.736 138.04 122.712 137.824C122.664 137.584 122.592 137.356 122.496 137.14C122.4 136.924 122.316 136.78 122.244 136.708C122.004 136.396 121.704 136.216 121.344 136.168C120.984 136.12 120.612 136.096 120.228 136.096L120.084 135.952V134.728L120.228 134.62H122.064C122.616 134.62 123.204 134.62 123.828 134.62C124.476 134.596 125.04 134.548 125.52 134.476L126.78 134.296L126.996 134.98C126.804 135.244 126.684 135.616 126.636 136.096C126.612 136.552 126.6 137.02 126.6 137.5L126.708 137.572ZM171.525 129.688C171.309 129.832 170.985 130.096 170.553 130.48C170.145 130.864 169.689 131.32 169.185 131.848C168.681 132.352 168.141 132.904 167.565 133.504C167.013 134.104 166.473 134.68 165.945 135.232L163.497 137.824C164.409 139.168 165.285 140.524 166.125 141.892C166.989 143.236 167.985 144.532 169.113 145.78C169.593 146.332 170.061 146.824 170.517 147.256C170.997 147.664 171.501 148.024 172.029 148.336C172.557 148.624 173.121 148.876 173.721 149.092C174.321 149.284 175.005 149.44 175.773 149.56L175.989 149.704L176.061 151.072L175.989 151.216C175.629 151.216 175.245 151.216 174.837 151.216C174.429 151.24 174.009 151.264 173.577 151.288C173.169 151.312 172.785 151.324 172.425 151.324C172.065 151.348 171.765 151.36 171.525 151.36C170.901 151.36 170.325 151.276 169.797 151.108C169.269 150.964 168.753 150.712 168.249 150.352C167.769 149.992 167.277 149.512 166.773 148.912C166.269 148.312 165.717 147.58 165.117 146.716C164.973 146.5 164.721 146.128 164.361 145.6C164.025 145.048 163.653 144.448 163.245 143.8C162.837 143.152 162.429 142.504 162.021 141.856C161.613 141.184 161.253 140.608 160.941 140.128C160.653 140.392 160.365 140.656 160.077 140.92C159.789 141.16 159.513 141.412 159.249 141.676V141.964C159.249 142.972 159.249 143.752 159.249 144.304C159.249 144.832 159.249 145.264 159.249 145.6C159.273 145.912 159.285 146.176 159.285 146.392C159.309 146.584 159.333 146.836 159.357 147.148C159.405 147.844 159.513 148.324 159.681 148.588C159.849 148.852 160.029 149.056 160.221 149.2C160.437 149.392 160.713 149.5 161.049 149.524C161.409 149.548 161.781 149.56 162.165 149.56L162.309 149.704L162.417 151.072L162.345 151.216C162.177 151.216 161.901 151.204 161.517 151.18C161.133 151.156 160.737 151.132 160.329 151.108C159.921 151.084 159.525 151.06 159.141 151.036C158.757 151.012 158.481 151 158.313 151H156.189C156.021 151 155.745 151.012 155.361 151.036C154.977 151.06 154.581 151.084 154.173 151.108C153.765 151.132 153.369 151.156 152.985 151.18C152.601 151.204 152.325 151.216 152.157 151.216L152.085 151.072L152.193 149.704L152.373 149.56C152.757 149.56 153.117 149.548 153.453 149.524C153.789 149.476 154.065 149.368 154.281 149.2C154.473 149.032 154.653 148.816 154.821 148.552C155.013 148.288 155.133 147.82 155.181 147.148C155.181 146.98 155.181 146.788 155.181 146.572C155.205 146.332 155.217 146.044 155.217 145.708C155.241 145.372 155.253 144.964 155.253 144.484C155.253 144.004 155.253 143.404 155.253 142.684V136.816C155.253 135.976 155.253 135.268 155.253 134.692C155.253 134.116 155.253 133.624 155.253 133.216C155.253 132.808 155.241 132.46 155.217 132.172C155.217 131.884 155.205 131.596 155.181 131.308C155.133 130.66 155.013 130.192 154.821 129.904C154.653 129.616 154.473 129.4 154.281 129.256C154.065 129.064 153.789 128.956 153.453 128.932C153.117 128.908 152.757 128.896 152.373 128.896L152.193 128.752L152.085 127.384L152.157 127.24C152.325 127.24 152.601 127.252 152.985 127.276C153.369 127.3 153.765 127.324 154.173 127.348C154.581 127.372 154.977 127.396 155.361 127.42C155.745 127.444 156.021 127.456 156.189 127.456H158.313C158.481 127.456 158.757 127.444 159.141 127.42C159.525 127.396 159.921 127.372 160.329 127.348C160.737 127.324 161.133 127.3 161.517 127.276C161.901 127.252 162.177 127.24 162.345 127.24L162.417 127.384L162.309 128.752L162.165 128.896C161.829 128.896 161.469 128.92 161.085 128.968C160.725 128.992 160.437 129.088 160.221 129.256C160.029 129.424 159.837 129.64 159.645 129.904C159.477 130.168 159.381 130.636 159.357 131.308C159.333 131.596 159.309 131.884 159.285 132.172C159.285 132.436 159.273 132.76 159.249 133.144C159.249 133.504 159.249 133.936 159.249 134.44C159.249 134.92 159.249 135.508 159.249 136.204V137.932C159.729 137.692 160.281 137.332 160.905 136.852C161.529 136.348 162.153 135.808 162.777 135.232C163.233 134.8 163.701 134.332 164.181 133.828C164.661 133.3 165.093 132.796 165.477 132.316C165.885 131.836 166.209 131.404 166.449 131.02C166.689 130.636 166.809 130.372 166.809 130.228C166.809 129.964 166.749 129.76 166.629 129.616C166.533 129.448 166.389 129.316 166.197 129.22C166.029 129.124 165.825 129.052 165.585 129.004C165.345 128.956 165.105 128.908 164.865 128.86L164.685 128.716V127.348L164.865 127.204C165.345 127.3 165.849 127.36 166.377 127.384C166.929 127.408 167.481 127.42 168.033 127.42H171.237C171.525 127.42 171.765 127.42 171.957 127.42C172.173 127.42 172.377 127.408 172.569 127.384C172.785 127.36 173.013 127.336 173.253 127.312C173.493 127.288 173.781 127.252 174.117 127.204L174.261 127.348V128.716L174.117 128.86C173.781 128.908 173.349 129.004 172.821 129.148C172.317 129.292 171.885 129.472 171.525 129.688ZM184.61 155.176C184.322 155.896 183.938 156.544 183.458 157.12C183.002 157.72 182.474 158.236 181.874 158.668C181.274 159.1 180.638 159.448 179.966 159.712C179.294 160 178.61 160.192 177.914 160.288C177.722 160.336 177.494 160.36 177.23 160.36C176.99 160.36 176.63 160.36 176.15 160.36L175.898 160.288L175.79 158.452L175.934 158.272H176.438C176.726 158.272 177.038 158.236 177.374 158.164C177.71 158.116 178.034 158.008 178.346 157.84C179.042 157.504 179.678 157.024 180.254 156.4C180.854 155.776 181.262 155.176 181.478 154.6L182.486 151.9L179.606 145.312C179.486 145.048 179.294 144.58 179.03 143.908C178.766 143.236 178.466 142.504 178.13 141.712C177.794 140.896 177.434 140.092 177.05 139.3C176.69 138.508 176.354 137.848 176.042 137.32C175.802 136.936 175.526 136.636 175.214 136.42C174.926 136.204 174.53 136.072 174.026 136.024L173.81 135.844V134.62L173.954 134.476C174.362 134.524 174.794 134.572 175.25 134.62C175.706 134.668 176.126 134.692 176.51 134.692H179.354C179.714 134.692 180.146 134.668 180.65 134.62C181.178 134.572 181.658 134.524 182.09 134.476L182.234 134.62V135.772L182.09 135.916C181.634 135.964 181.238 136.108 180.902 136.348C180.59 136.564 180.434 136.888 180.434 137.32C180.434 137.608 180.53 138.088 180.722 138.76C180.938 139.408 181.178 140.104 181.442 140.848C181.73 141.592 181.994 142.288 182.234 142.936C182.498 143.56 182.666 143.98 182.738 144.196L184.286 148.552L186.086 144.196C186.254 143.812 186.458 143.332 186.698 142.756C186.938 142.156 187.166 141.532 187.382 140.884C187.622 140.236 187.826 139.6 187.994 138.976C188.162 138.352 188.246 137.8 188.246 137.32C188.246 136.792 188.066 136.444 187.706 136.276C187.346 136.084 186.962 135.964 186.554 135.916L186.41 135.772V134.62L186.554 134.476C187.01 134.572 187.442 134.632 187.85 134.656C188.258 134.68 188.642 134.692 189.002 134.692H191.918C192.326 134.692 192.722 134.668 193.106 134.62C193.514 134.572 193.946 134.524 194.402 134.476L194.546 134.62V135.844L194.33 136.024C193.922 136.072 193.562 136.192 193.25 136.384C192.962 136.576 192.686 136.888 192.422 137.32C192.062 137.896 191.654 138.64 191.198 139.552C190.766 140.44 190.334 141.34 189.902 142.252C189.494 143.164 189.122 143.992 188.786 144.736C188.45 145.48 188.234 145.996 188.138 146.284L184.61 155.176ZM201.757 138.256C201.997 137.8 202.261 137.32 202.549 136.816C202.861 136.312 203.209 135.844 203.593 135.412C203.977 134.98 204.409 134.62 204.889 134.332C205.393 134.044 205.957 133.9 206.581 133.9C206.773 133.9 207.001 133.924 207.265 133.972C207.553 133.996 207.829 134.044 208.093 134.116C208.381 134.188 208.657 134.272 208.921 134.368C209.185 134.464 209.389 134.572 209.533 134.692L209.785 134.908L209.353 138.796H207.805C207.733 138.508 207.541 138.22 207.229 137.932C206.941 137.62 206.485 137.464 205.861 137.464C205.309 137.464 204.805 137.608 204.349 137.896C203.893 138.16 203.497 138.496 203.161 138.904C202.825 139.312 202.561 139.756 202.369 140.236C202.177 140.692 202.081 141.112 202.081 141.496V143.98C202.081 144.892 202.081 145.576 202.081 146.032C202.105 146.488 202.129 146.884 202.153 147.22C202.201 147.748 202.261 148.18 202.333 148.516C202.429 148.828 202.573 149.068 202.765 149.236C202.861 149.332 203.005 149.416 203.197 149.488C203.413 149.536 203.629 149.572 203.845 149.596C204.061 149.62 204.265 149.632 204.457 149.632C204.673 149.632 204.841 149.632 204.961 149.632L205.141 149.812L205.213 151L205.141 151.144C204.997 151.144 204.757 151.132 204.421 151.108C204.085 151.084 203.725 151.06 203.341 151.036C202.957 151.036 202.597 151.024 202.261 151C201.925 151 201.685 151 201.541 151H199.237C199.069 151 198.805 151 198.445 151C198.109 151.024 197.749 151.036 197.365 151.036C196.981 151.06 196.609 151.084 196.249 151.108C195.913 151.132 195.661 151.144 195.493 151.144L195.457 151L195.529 149.776L195.637 149.632C196.045 149.632 196.429 149.62 196.789 149.596C197.149 149.548 197.425 149.428 197.617 149.236C197.809 149.068 197.941 148.852 198.013 148.588C198.109 148.324 198.181 147.868 198.229 147.22C198.253 146.932 198.265 146.548 198.265 146.068C198.265 145.588 198.265 144.916 198.265 144.052V141.424C198.265 140.92 198.265 140.5 198.265 140.164C198.265 139.804 198.253 139.492 198.229 139.228C198.229 138.964 198.217 138.724 198.193 138.508C198.193 138.292 198.181 138.064 198.157 137.824C198.109 137.584 198.037 137.356 197.941 137.14C197.845 136.924 197.761 136.78 197.689 136.708C197.449 136.396 197.149 136.216 196.789 136.168C196.429 136.12 196.057 136.096 195.673 136.096L195.529 135.952V134.728L195.673 134.62H196.321C196.849 134.62 197.533 134.62 198.373 134.62C199.213 134.596 199.945 134.548 200.569 134.476L201.829 134.296L202.045 134.98C201.901 135.436 201.793 135.952 201.721 136.528C201.673 137.104 201.649 137.668 201.649 138.22L201.757 138.256ZM215.237 146.104C214.013 145.624 213.125 144.868 212.573 143.836C212.021 142.804 211.745 141.664 211.745 140.416C211.745 139.528 211.901 138.688 212.213 137.896C212.525 137.104 212.969 136.42 213.545 135.844C214.145 135.244 214.853 134.776 215.669 134.44C216.509 134.104 217.457 133.936 218.513 133.936C219.137 133.936 219.749 133.996 220.349 134.116C220.973 134.236 221.513 134.404 221.969 134.62C222.977 134.596 223.913 134.536 224.777 134.44C225.665 134.344 226.493 134.188 227.261 133.972L227.441 134.116L227.189 136.816L227.009 136.996L224.309 136.708L224.273 136.816C224.657 137.248 224.957 137.824 225.173 138.544C225.389 139.264 225.497 139.948 225.497 140.596C225.497 141.388 225.341 142.144 225.029 142.864C224.741 143.584 224.309 144.22 223.733 144.772C223.157 145.3 222.437 145.732 221.573 146.068C220.709 146.38 219.713 146.536 218.585 146.536C218.441 146.536 218.249 146.536 218.009 146.536C217.793 146.512 217.625 146.5 217.505 146.5C217.097 146.668 216.785 146.896 216.569 147.184C216.377 147.472 216.281 147.712 216.281 147.904C216.281 148.432 216.845 148.768 217.973 148.912L221.465 149.272C222.257 149.368 222.989 149.536 223.661 149.776C224.357 150.016 224.957 150.34 225.461 150.748C225.989 151.132 226.397 151.6 226.685 152.152C226.973 152.728 227.117 153.388 227.117 154.132C227.117 154.828 226.961 155.524 226.649 156.22C226.337 156.94 225.869 157.576 225.245 158.128C224.621 158.656 223.757 159.088 222.653 159.424C221.549 159.76 220.277 159.928 218.837 159.928C217.541 159.928 216.413 159.784 215.453 159.496C214.517 159.232 213.725 158.86 213.077 158.38C212.453 157.924 211.985 157.396 211.673 156.796C211.361 156.22 211.205 155.62 211.205 154.996C211.205 153.988 211.529 153.088 212.177 152.296C212.849 151.528 213.701 150.988 214.733 150.676L214.769 150.568C214.193 150.352 213.725 150.088 213.365 149.776C213.029 149.44 212.861 149.032 212.861 148.552C212.861 147.928 213.113 147.424 213.617 147.04C214.121 146.656 214.661 146.392 215.237 146.248V146.104ZM218.657 144.052C219.137 144.052 219.557 143.956 219.917 143.764C220.301 143.572 220.625 143.32 220.889 143.008C221.153 142.696 221.345 142.336 221.465 141.928C221.609 141.496 221.681 141.052 221.681 140.596C221.681 140.116 221.609 139.636 221.465 139.156C221.321 138.676 221.117 138.244 220.853 137.86C220.589 137.452 220.253 137.128 219.845 136.888C219.437 136.624 218.969 136.492 218.441 136.492C217.937 136.492 217.505 136.612 217.145 136.852C216.785 137.068 216.473 137.356 216.209 137.716C215.969 138.076 215.789 138.484 215.669 138.94C215.549 139.396 215.489 139.84 215.489 140.272C215.489 140.728 215.549 141.184 215.669 141.64C215.813 142.096 216.017 142.504 216.281 142.864C216.545 143.224 216.869 143.512 217.253 143.728C217.661 143.944 218.129 144.052 218.657 144.052ZM217.505 151.792C216.977 151.816 216.521 151.912 216.137 152.08C215.753 152.248 215.429 152.464 215.165 152.728C214.901 153.016 214.697 153.316 214.553 153.628C214.433 153.964 214.373 154.288 214.373 154.6C214.373 155.296 214.793 155.86 215.633 156.292C216.473 156.748 217.613 156.976 219.053 156.976C220.349 156.976 221.441 156.76 222.329 156.328C223.217 155.92 223.661 155.308 223.661 154.492C223.661 154.036 223.553 153.664 223.337 153.376C223.121 153.088 222.833 152.848 222.473 152.656C222.113 152.488 221.705 152.356 221.249 152.26C220.817 152.164 220.373 152.092 219.917 152.044L217.505 151.792ZM238.645 155.176C238.357 155.896 237.973 156.544 237.493 157.12C237.037 157.72 236.509 158.236 235.909 158.668C235.309 159.1 234.673 159.448 234.001 159.712C233.329 160 232.645 160.192 231.949 160.288C231.757 160.336 231.529 160.36 231.265 160.36C231.025 160.36 230.665 160.36 230.185 160.36L229.933 160.288L229.825 158.452L229.969 158.272H230.473C230.761 158.272 231.073 158.236 231.409 158.164C231.745 158.116 232.069 158.008 232.381 157.84C233.077 157.504 233.713 157.024 234.289 156.4C234.889 155.776 235.297 155.176 235.513 154.6L236.521 151.9L233.641 145.312C233.521 145.048 233.329 144.58 233.065 143.908C232.801 143.236 232.501 142.504 232.165 141.712C231.829 140.896 231.469 140.092 231.085 139.3C230.725 138.508 230.389 137.848 230.077 137.32C229.837 136.936 229.561 136.636 229.249 136.42C228.961 136.204 228.565 136.072 228.061 136.024L227.845 135.844V134.62L227.989 134.476C228.397 134.524 228.829 134.572 229.285 134.62C229.741 134.668 230.161 134.692 230.545 134.692H233.389C233.749 134.692 234.181 134.668 234.685 134.62C235.213 134.572 235.693 134.524 236.125 134.476L236.269 134.62V135.772L236.125 135.916C235.669 135.964 235.273 136.108 234.937 136.348C234.625 136.564 234.469 136.888 234.469 137.32C234.469 137.608 234.565 138.088 234.757 138.76C234.973 139.408 235.213 140.104 235.477 140.848C235.765 141.592 236.029 142.288 236.269 142.936C236.533 143.56 236.701 143.98 236.773 144.196L238.321 148.552L240.121 144.196C240.289 143.812 240.493 143.332 240.733 142.756C240.973 142.156 241.201 141.532 241.417 140.884C241.657 140.236 241.861 139.6 242.029 138.976C242.197 138.352 242.281 137.8 242.281 137.32C242.281 136.792 242.101 136.444 241.741 136.276C241.381 136.084 240.997 135.964 240.589 135.916L240.445 135.772V134.62L240.589 134.476C241.045 134.572 241.477 134.632 241.885 134.656C242.293 134.68 242.677 134.692 243.037 134.692H245.953C246.361 134.692 246.757 134.668 247.141 134.62C247.549 134.572 247.981 134.524 248.437 134.476L248.581 134.62V135.844L248.365 136.024C247.957 136.072 247.597 136.192 247.285 136.384C246.997 136.576 246.721 136.888 246.457 137.32C246.097 137.896 245.689 138.64 245.233 139.552C244.801 140.44 244.369 141.34 243.937 142.252C243.529 143.164 243.157 143.992 242.821 144.736C242.485 145.48 242.269 145.996 242.173 146.284L238.645 155.176ZM250.032 139.48L250.32 134.62L250.428 134.404C251.436 134.452 252.408 134.5 253.344 134.548C254.28 134.572 255.12 134.596 255.864 134.62C256.632 134.62 257.28 134.62 257.808 134.62C258.36 134.62 258.744 134.62 258.96 134.62H262.02C262.236 134.62 262.584 134.608 263.064 134.584C263.568 134.536 264.024 134.476 264.432 134.404L264.648 134.692L264.54 135.268C264.276 135.58 263.916 136.036 263.46 136.636C263.028 137.212 262.548 137.884 262.02 138.652C261.516 139.42 260.976 140.248 260.4 141.136C259.848 142 259.296 142.864 258.744 143.728C258.216 144.568 257.724 145.384 257.268 146.176C256.836 146.944 256.476 147.616 256.188 148.192L256.332 148.336H257.448C258.696 148.336 259.668 148.312 260.364 148.264C261.084 148.216 261.636 148.108 262.02 147.94C262.428 147.748 262.716 147.472 262.884 147.112C263.076 146.728 263.28 146.212 263.496 145.564L263.604 145.42H265.116L264.54 150.784L264.36 151.144C264.288 151.144 264.06 151.132 263.676 151.108C263.292 151.108 262.812 151.108 262.236 151.108C261.684 151.108 261.072 151.096 260.4 151.072C259.752 151.048 259.128 151.036 258.528 151.036C257.952 151.036 257.448 151.024 257.016 151C256.584 151 256.296 151 256.152 151H255C254.736 151 254.376 151 253.92 151C253.488 151.024 253.02 151.036 252.516 151.036C252.012 151.06 251.52 151.072 251.04 151.072C250.56 151.096 250.176 151.12 249.888 151.144L249.636 150.856V150.352C249.948 150.04 250.332 149.572 250.788 148.948C251.268 148.324 251.784 147.616 252.336 146.824C252.888 146.032 253.452 145.192 254.028 144.304C254.628 143.392 255.18 142.504 255.684 141.64C256.212 140.776 256.668 139.96 257.052 139.192C257.46 138.4 257.772 137.728 257.988 137.176L257.844 137.032H255.144C254.424 137.032 253.848 137.08 253.416 137.176C253.008 137.248 252.684 137.392 252.444 137.608C252.228 137.8 252.072 138.052 251.976 138.364C251.904 138.676 251.832 139.06 251.76 139.516L251.616 139.66H250.284L250.032 139.48ZM275.812 140.92C276.82 141.16 277.636 141.484 278.26 141.892C278.884 142.3 279.352 142.744 279.664 143.224C280 143.704 280.216 144.196 280.312 144.7C280.432 145.204 280.492 145.672 280.492 146.104C280.492 146.872 280.336 147.58 280.024 148.228C279.712 148.876 279.256 149.44 278.656 149.92C278.08 150.376 277.372 150.736 276.532 151C275.692 151.264 274.744 151.396 273.688 151.396C272.584 151.396 271.552 151.276 270.592 151.036C269.632 150.82 268.876 150.556 268.324 150.244L267.892 149.776L268.432 145.348H269.62L269.728 145.492C269.728 146.548 270.052 147.388 270.7 148.012C271.348 148.612 272.308 148.912 273.58 148.912C274.252 148.912 274.816 148.852 275.272 148.732C275.752 148.588 276.124 148.42 276.388 148.228C276.676 148.012 276.88 147.784 277 147.544C277.12 147.28 277.18 147.04 277.18 146.824C277.18 146.656 277.168 146.476 277.144 146.284C277.12 146.092 277.048 145.9 276.928 145.708C276.808 145.492 276.628 145.288 276.388 145.096C276.148 144.88 275.8 144.7 275.344 144.556L271.888 143.692C271.096 143.5 270.448 143.224 269.944 142.864C269.44 142.504 269.032 142.108 268.72 141.676C268.432 141.22 268.228 140.74 268.108 140.236C268.012 139.732 267.964 139.228 267.964 138.724C267.964 137.932 268.12 137.236 268.432 136.636C268.744 136.012 269.164 135.508 269.692 135.124C270.244 134.716 270.88 134.416 271.6 134.224C272.32 134.008 273.1 133.9 273.94 133.9C274.996 133.9 275.968 134.032 276.856 134.296C277.744 134.536 278.428 134.8 278.908 135.088L279.376 135.52L278.98 139.012H277.864L277.72 138.904C277.72 138.376 277.576 137.944 277.288 137.608C277.024 137.248 276.688 136.972 276.28 136.78C275.896 136.564 275.488 136.42 275.056 136.348C274.624 136.252 274.24 136.204 273.904 136.204C272.944 136.204 272.26 136.408 271.852 136.816C271.444 137.224 271.24 137.68 271.24 138.184C271.24 138.616 271.372 139.036 271.636 139.444C271.924 139.852 272.464 140.152 273.256 140.344L275.812 140.92ZM292.795 136.6H288.835C288.835 137.992 288.823 139.288 288.799 140.488C288.799 141.664 288.799 142.696 288.799 143.584C288.799 144.448 288.787 145.156 288.763 145.708C288.763 146.26 288.763 146.596 288.763 146.716C288.763 147.652 288.943 148.276 289.303 148.588C289.663 148.9 290.083 149.056 290.563 149.056C290.923 149.056 291.331 149.02 291.787 148.948C292.243 148.876 292.627 148.78 292.939 148.66L293.155 149.056L292.795 150.244C292.147 150.604 291.475 150.88 290.779 151.072C290.107 151.288 289.483 151.396 288.907 151.396C287.443 151.396 286.399 151.06 285.775 150.388C285.151 149.716 284.839 148.852 284.839 147.796C284.839 147.58 284.851 147.16 284.875 146.536C284.899 145.888 284.923 145.084 284.947 144.124C284.971 143.14 284.995 142.012 285.019 140.74C285.043 139.468 285.055 138.088 285.055 136.6H283.183L283.039 136.42V134.836L283.183 134.692L285.055 134.188C285.055 133.42 285.031 132.64 284.983 131.848C284.959 131.032 284.923 130.24 284.875 129.472L285.127 129.256L285.631 129.22C285.799 129.22 286.027 129.208 286.315 129.184C286.627 129.16 286.951 129.136 287.287 129.112C287.623 129.064 287.935 129.016 288.223 128.968C288.535 128.92 288.763 128.872 288.907 128.824L289.231 128.968C289.111 129.568 289.015 130.372 288.943 131.38C288.871 132.364 288.835 133.3 288.835 134.188L292.795 133.972L292.975 134.116V136.42L292.795 136.6ZM305.068 150.748C305.14 150.532 305.188 150.22 305.212 149.812C305.26 149.404 305.32 149.032 305.392 148.696L305.356 148.588C305.068 148.948 304.732 149.296 304.348 149.632C303.988 149.968 303.58 150.268 303.124 150.532C302.668 150.796 302.176 151 301.648 151.144C301.144 151.312 300.604 151.396 300.028 151.396C299.164 151.396 298.408 151.264 297.76 151C297.112 150.736 296.572 150.388 296.14 149.956C295.708 149.524 295.372 149.02 295.132 148.444C294.916 147.868 294.808 147.268 294.808 146.644C294.808 145.708 295.012 144.892 295.42 144.196C295.828 143.5 296.368 142.936 297.04 142.504C297.664 142.096 298.396 141.784 299.236 141.568C300.076 141.328 300.892 141.148 301.684 141.028C302.476 140.908 303.196 140.836 303.844 140.812C304.492 140.764 304.924 140.74 305.14 140.74H305.644C305.62 139.996 305.572 139.42 305.5 139.012C305.428 138.58 305.332 138.22 305.212 137.932C304.996 137.452 304.636 137.116 304.132 136.924C303.652 136.708 303.076 136.6 302.404 136.6C301.996 136.6 301.552 136.636 301.072 136.708C300.616 136.756 300.184 136.864 299.776 137.032C299.368 137.2 299.008 137.44 298.696 137.752C298.408 138.04 298.24 138.424 298.192 138.904L298.048 139.012H296.896L296.572 135.628L296.68 135.412C296.824 135.268 297.1 135.112 297.508 134.944C297.916 134.776 298.408 134.62 298.984 134.476C299.56 134.308 300.184 134.176 300.856 134.08C301.552 133.96 302.248 133.9 302.944 133.9C303.88 133.9 304.756 134.02 305.572 134.26C306.388 134.476 307.084 134.812 307.66 135.268C308.26 135.724 308.728 136.3 309.064 136.996C309.4 137.668 309.568 138.46 309.568 139.372C309.568 140.356 309.556 141.196 309.532 141.892C309.532 142.588 309.52 143.236 309.496 143.836C309.472 144.436 309.448 145.024 309.424 145.6C309.424 146.152 309.424 146.776 309.424 147.472C309.472 148.024 309.532 148.42 309.604 148.66C309.676 148.9 309.796 149.092 309.964 149.236C310.156 149.428 310.444 149.548 310.828 149.596C311.236 149.62 311.608 149.632 311.944 149.632L312.052 149.776L312.124 151L312.088 151.144C311.68 151.096 311.212 151.06 310.684 151.036C310.156 151.012 309.664 151 309.208 151C308.536 151 307.864 151 307.192 151C306.52 151.024 305.884 151.06 305.284 151.108L305.068 150.748ZM305.068 146.86C305.14 146.74 305.212 146.596 305.284 146.428C305.38 146.26 305.44 146.056 305.464 145.816L305.644 142.756H305.32C304.576 142.756 303.844 142.804 303.124 142.9C302.404 142.996 301.756 143.176 301.18 143.44C300.604 143.704 300.136 144.076 299.776 144.556C299.416 145.036 299.236 145.66 299.236 146.428C299.236 147.076 299.392 147.592 299.704 147.976C300.04 148.36 300.484 148.552 301.036 148.552C301.444 148.552 301.852 148.504 302.26 148.408C302.692 148.288 303.088 148.144 303.448 147.976C303.808 147.808 304.132 147.628 304.42 147.436C304.708 147.22 304.924 147.028 305.068 146.86ZM320.138 137.572C320.69 136.516 321.446 135.64 322.406 134.944C323.366 134.248 324.494 133.9 325.79 133.9C326.534 133.9 327.266 133.996 327.986 134.188C328.706 134.38 329.354 134.68 329.93 135.088C330.53 135.496 331.022 136.024 331.406 136.672C331.814 137.296 332.078 138.04 332.198 138.904C332.27 139.528 332.306 140.188 332.306 140.884C332.33 141.58 332.342 142.276 332.342 142.972C332.366 143.788 332.378 144.544 332.378 145.24C332.378 145.912 332.378 146.656 332.378 147.472C332.378 148.024 332.438 148.444 332.558 148.732C332.702 148.996 332.87 149.176 333.062 149.272C333.326 149.416 333.602 149.512 333.89 149.56C334.202 149.608 334.55 149.632 334.934 149.632L335.042 149.776L335.114 151L335.042 151.144C334.538 151.096 333.974 151.06 333.35 151.036C332.75 151.012 332.162 151 331.586 151C331.01 151 330.434 151 329.858 151C329.282 151.024 328.742 151.06 328.238 151.108L327.986 150.388C328.058 150.076 328.118 149.608 328.166 148.984C328.238 148.36 328.286 147.856 328.31 147.472C328.358 146.56 328.394 145.708 328.418 144.916C328.442 144.124 328.454 143.416 328.454 142.792C328.454 142.24 328.442 141.64 328.418 140.992C328.394 140.344 328.31 139.78 328.166 139.3C327.974 138.532 327.578 137.968 326.978 137.608C326.402 137.224 325.73 137.032 324.962 137.032C324.242 137.032 323.582 137.164 322.982 137.428C322.382 137.692 321.866 138.016 321.434 138.4C321.026 138.76 320.702 139.144 320.462 139.552C320.222 139.96 320.102 140.32 320.102 140.632V144.34C320.102 144.82 320.102 145.216 320.102 145.528C320.102 145.816 320.102 146.068 320.102 146.284C320.126 146.5 320.138 146.704 320.138 146.896C320.162 147.064 320.186 147.256 320.21 147.472C320.258 147.976 320.354 148.36 320.498 148.624C320.666 148.864 320.846 149.068 321.038 149.236C321.23 149.428 321.458 149.548 321.722 149.596C321.986 149.62 322.298 149.632 322.658 149.632L322.838 149.812L322.91 151L322.838 151.144C322.67 151.144 322.418 151.132 322.082 151.108C321.746 151.084 321.386 151.06 321.002 151.036C320.618 151.036 320.258 151.024 319.922 151C319.586 151 319.334 151 319.166 151H317.186C317.018 151 316.754 151 316.394 151C316.058 151.024 315.698 151.036 315.314 151.036C314.954 151.06 314.594 151.084 314.234 151.108C313.898 151.132 313.646 151.144 313.478 151.144L313.442 151L313.514 149.776L313.622 149.632C314.006 149.632 314.342 149.62 314.63 149.596C314.942 149.548 315.194 149.428 315.386 149.236C315.554 149.068 315.71 148.852 315.854 148.588C315.998 148.324 316.094 147.952 316.142 147.472C316.166 147.304 316.178 147.136 316.178 146.968C316.202 146.8 316.214 146.62 316.214 146.428C316.238 146.236 316.25 146.008 316.25 145.744C316.25 145.48 316.25 145.156 316.25 144.772V141.064C316.25 140.608 316.25 140.224 316.25 139.912C316.25 139.6 316.238 139.324 316.214 139.084C316.214 138.844 316.202 138.628 316.178 138.436C316.178 138.244 316.166 138.04 316.142 137.824C316.094 137.584 316.022 137.356 315.926 137.14C315.83 136.924 315.746 136.78 315.674 136.708C315.434 136.396 315.134 136.216 314.774 136.168C314.414 136.12 314.042 136.096 313.658 136.096L313.514 135.952V134.728L313.658 134.62H315.494C316.046 134.62 316.634 134.62 317.258 134.62C317.906 134.596 318.47 134.548 318.95 134.476L320.21 134.296L320.426 134.98C320.234 135.244 320.114 135.616 320.066 136.096C320.042 136.552 320.03 137.02 320.03 137.5L320.138 137.572Z" fill="white"/>
<g filter="url(#filter0_d)">
<path d="M18.3331 98.7497C18.3331 94.9997 19.5831 91.2497 21.6665 87.9163C23.7498 84.583 27.9165 80.833 34.1665 76.6663C30.4165 72.083 28.3331 68.7497 27.0831 66.2497C25.4165 63.333 24.9998 60.833 24.9998 57.9163C24.9998 51.6663 26.6665 47.083 30.4165 43.333C34.1665 39.583 39.1665 38.333 45.4165 38.333C50.8331 38.333 55.4165 39.9997 59.1665 43.333C62.9165 46.6663 64.5831 50.833 64.5831 55.4163C64.5831 58.7497 63.7498 61.6663 62.0831 64.583C60.4165 67.4997 57.4998 70.4163 53.3331 73.333L47.4998 77.9163L65.4165 99.583C67.9165 94.583 69.1665 89.583 69.1665 83.333H78.3331C78.3331 92.9163 76.2498 100.833 71.6665 107.083L83.3331 120.833H70.8331L65.4165 114.583C62.4998 117.083 59.5831 118.75 55.8331 120C52.0831 121.25 48.3331 122.083 44.5831 122.083C36.6665 122.083 30.4165 120 25.4165 115.833C20.8331 111.25 18.3331 105.833 18.3331 98.7497ZM44.5831 113.333C49.9998 113.333 54.9998 111.25 59.5831 107.083L39.9998 83.333L38.3331 84.583C32.0831 89.1663 29.1665 93.7497 29.1665 98.7497C29.1665 103.333 30.4165 106.666 33.3331 109.166C36.2498 111.666 39.5831 113.333 44.5831 113.333ZM35.4165 57.9163C35.4165 61.6663 37.4998 65.833 42.0831 71.2497L48.7498 66.6663C51.2498 64.9997 52.9165 63.333 53.7498 61.6663C54.5831 59.9997 54.9998 57.9163 54.9998 55.833C54.9998 53.333 54.1665 51.2497 52.0831 49.583C50.4165 47.9163 47.9165 47.083 44.9998 47.083C42.0831 47.083 39.5831 47.9163 37.9165 49.9997C36.2498 52.083 35.4165 54.583 35.4165 57.9163Z" fill="white"/>
</g>
<defs>
<filter id="filter0_d" x="-4" y="30" width="108" height="108" filterUnits="userSpaceOnUse" color-interpolation-filters="sRGB">
<feFlood flood-opacity="0" result="BackgroundImageFix"/>
<feColorMatrix in="SourceAlpha" type="matrix" values="0 0 0 0 0 0 0 0 0 0 0 0 0 0 0 0 0 0 127 0"/>
<feOffset dy="4"/>
<feGaussianBlur stdDeviation="2"/>
<feColorMatrix type="matrix" values="0 0 0 0 0 0 0 0 0 0 0 0 0 0 0 0 0 0 0.25 0"/>
<feBlend mode="normal" in2="BackgroundImageFix" result="effect1_dropShadow"/>
<feBlend mode="normal" in="SourceGraphic" in2="effect1_dropShadow" result="shape"/>
</filter>
</defs>
</svg>
