<svg width="50" height="59" fill="none" xmlns="http://www.w3.org/2000/svg"><path d="M19 14c-1.1 0-1.99.9-1.99 2L17 32c0 1.1.89 2 1.99 2H31c1.1 0 2-.9 2-2V20l-6-6h-8zm7 7v-5.5l5.5 5.5H26z" fill="#2F80ED"/><path d="M9.804 44.4c1.632 0 2.916.39 3.852 1.17.936.78 1.404 1.854 1.404 3.222 0 1.368-.468 2.442-1.404 3.222-.936.78-2.22 1.17-3.852 1.17H6.69V57h-1.8V44.4h4.914zm-.054 7.218c1.14 0 2.01-.24 2.61-.72.6-.492.9-1.194.9-2.106 0-.912-.3-1.608-.9-2.088-.6-.492-1.47-.738-2.61-.738H6.69v5.652h3.06zm9.204-7.218h5.31c1.332 0 2.515.264 3.547.792s1.83 1.272 2.393 2.232c.576.948.864 2.04.864 3.276 0 1.236-.288 2.334-.864 3.294-.564.948-1.361 1.686-2.393 2.214-1.032.528-2.215.792-3.546.792h-5.31V44.4zm5.203 11.034c1.02 0 1.913-.198 2.681-.594.78-.396 1.38-.948 1.8-1.656.42-.72.63-1.548.63-2.484 0-.936-.21-1.758-.63-2.466a4.265 4.265 0 00-1.8-1.674c-.768-.396-1.662-.594-2.681-.594h-3.402v9.468h3.402zm12.719-9.468v4.392h6.318v1.548h-6.319V57h-1.8V44.4h8.892v1.566h-7.091z" fill="#000"/></svg>