<svg width="14" height="14" fill="none" xmlns="http://www.w3.org/2000/svg"><path d="M5.72 6.24a1.62 1.62 0 01.2-.574c.08-.173.226-.313.393-.42.16-.1.353-.146.607-.153.153.007.293.033.413.087.14.06.26.153.353.24.094.1.167.22.227.353.06.133.087.28.087.427h1.2a2.203 2.203 0 00-.2-.867c-.1-.253-.254-.48-.454-.667a2.322 2.322 0 00-.72-.44 2.575 2.575 0 00-.926-.153c-.434 0-.814.073-1.134.227a2.46 2.46 0 00-.8.613 2.51 2.51 0 00-.473.907c-.1.346-.16.706-.16 1.093v.18c0 .387.053.747.153 1.093.1.347.26.647.474.9.213.247.48.46.8.607.32.147.7.227 1.133.227.313 0 .607-.054.88-.154s.513-.24.72-.433c.207-.167.373-.373.507-.613.106-.24.18-.494.186-.767H8a.81.81 0 01-.107.38c-.06.127-.14.227-.227.313a1.273 1.273 0 01-.36.2 1.32 1.32 0 01-.4.067c-.24-.007-.44-.053-.593-.153a.94.94 0 01-.393-.427 1.574 1.574 0 01-.2-.573 4.493 4.493 0 01-.054-.667v-.18c0-.247.02-.453.054-.673zM7 .333a6.667 6.667 0 100 13.333A6.667 6.667 0 007 .333zm0 12A5.34 5.34 0 011.666 7 5.34 5.34 0 017 1.666 5.34 5.34 0 0112.333 7 5.34 5.34 0 017 12.333z" fill="#fff"/></svg>