<svg width="185" height="34" fill="none" xmlns="http://www.w3.org/2000/svg"><g clip-path="url(#clip0)" fill="#A52431"><path d="M162.766 27.876c3.584.14 5.846-2.922 5.846-2.922l-7.203-9.538s-.382.035-2.505 1.514c-2.227 1.513-3.027 4.786-2.296 6.969.696 2.182 2.574 3.836 6.158 3.977zm-1.287-22.561c-1.531 1.056-1.357 3.132-.348 4.716a53.372 53.372 0 002.296 3.238c3.097-1.654 3.167-4.681 2.297-6.652-.766-1.654-2.714-2.358-4.245-1.302zm18.093 21.434c-.8.916-1.983 1.338-3.201 1.338-1.183 0-2.192-.95-2.784-1.62-.591-.633-2.505-3.096-2.505-3.096s3.271-4.4 4.802-6.512c1.6-2.182 3.618-2.886 3.618-2.886l.035-.634-7.481.634.035.528s.452-.14 1.113.598c.627.704.557 1.549-.104 3.309-.661 1.76-2.609 4.188-2.609 4.188l-6.298-8.412s.731-.528 2.053-1.513c1.879-1.338 2.4-4.224 1.148-6.406-1.253-2.182-3.306-2.358-4.28-2.358-.974 0-2.957.07-4.453 1.97-1.497 1.901-.87 4.365-.035 5.703a348.964 348.964 0 001.948 2.991c-3.027 1.408-6.402 3.52-7.133 6.09-.73 2.569-.278 5.736 2.019 8.024 2.296 2.323 6.367 1.936 8.594 1.091 2.226-.844 5.045-4.082 5.045-4.082s.348.316 1.392 1.583c1.287 1.55 3.061 3.168 5.288 3.203 1.531.035 2.819-.844 3.48-1.795l.556-1.548-.243-.387zM185 34.035h-36.43V0H185v34.035zm-100.694-.492c-.174 0-1.461 0-1.705-.246-.243-.247-.278-.95-.278-1.55V21.4c0-.563.035-1.302.278-1.549.244-.246 1.531-.246 1.705-.246h.035v-.457h-5.88v.457h.035c.174 0 1.461 0 1.705.246.243.247.278.95.278 1.549v10.383c0 .563-.035 1.302-.278 1.549-.244.246-1.462.246-1.636.246h-.034v.458h5.88v-.458h-.105v-.035zM5.602 26.75c1.044-3.027 2.087-6.089 2.087-6.089s1.183 3.203 2.227 6.089H5.602zm8.072 5.49c-.383-1.126-4.767-13.128-4.767-13.128H7.655s-4.21 11.65-4.802 13.094c-.452 1.09-1.879 1.267-2.505 1.302H0v.457h5.88v-.457c-1.183-.106-2.54-.176-2.261-1.021.104-.352.904-2.675 1.774-5.139h4.767c.696 1.936 1.287 3.59 1.392 3.872.243.774.765 1.865.452 2.041-.313.176-2.088.247-2.088.247v.457h5.88v-.457c-1.217-.106-1.74-.141-2.122-1.267zm78.113-5.49c1.044-3.027 2.088-6.089 2.088-6.089s1.183 3.203 2.227 6.089h-4.315zm8.072 5.49c-.382-1.126-4.766-13.128-4.766-13.128h-1.218s-4.21 11.65-4.802 13.094c-.452 1.09-1.879 1.267-2.505 1.302h-.313v.457h5.88v-.457c-1.183-.106-2.54-.176-2.261-1.021.104-.352.904-2.675 1.774-5.139h4.767c.696 1.936 1.287 3.59 1.391 3.872.244.774.766 1.865.453 2.041-.313.176-2.088.247-2.088.247v.457h5.88v-.457c-1.252-.106-1.809-.141-2.192-1.267zm30.793-2.04s-1.114 3.061-3.445 3.061h-4.141c-.174 0-1.461 0-1.704-.246-.244-.246-.279-.95-.279-1.549v-4.751h5.045c.557 0 .835.105 1.009.317.244.281.348 1.795.348 1.795v.21h.453v-5.279h-.453v.211s-.104 1.514-.348 1.796c-.174.21-.417.316-1.009.316h-5.045v-4.4c0-.563.035-1.302.279-1.548.243-.246 1.53-.246 1.704-.246h2.888c2.332 0 3.167 2.604 3.167 2.604h.278l-.07-3.379h-12.073v.528h.035c.174 0 1.426.247 1.635.493.244.246.278.986.278 1.549v9.75c0 .562-.034 1.301-.278 1.548-.244.246-1.461.563-1.635.563h-.035V34h13.152l.626-3.837h-.382v.035zm-15.901-11.968h-.383c-.522 1.021-1.739 1.021-1.739 1.021h-9.116s-1.218 0-1.74-1.02h-.383l-.8 4.293s.278.07.661-.457c.765-1.056 1.635-2.077 3.062-2.077h2.853v11.826c0 .564-.035 1.267-.278 1.514-.244.246-1.462.246-1.636.246h-.035v.458h5.846v-.458h-.07c-.174 0-1.461 0-1.705-.246-.243-.247-.278-.95-.278-1.514v-11.86h2.853c1.427 0 2.262 1.02 3.062 2.076.383.528.661.457.661.457l-.835-4.259zM65.03 14.43c-.174 0-1.461 0-1.705-.246s-.278-.95-.278-1.548V2.253c0-.564.035-1.303.278-1.55.244-.245 1.531-.245 1.705-.245h.035V0h-5.88v.458h.034c.174 0 1.462 0 1.705.246.244.246.279.95.279 1.549v10.383c0 .563-.035 1.302-.279 1.548-.243.247-1.461.247-1.635.247h-.035v.457h5.88v-.457h-.104zm-48.433-.809c1.113.774 2.088.774 2.088.774v.458h-6.542v-.422s1.775-.036 1.949-.211c.174-.177-1.218-1.373-2.157-2.148-.94-.774-5.915-4.821-5.915-4.821l7.098-5.632c.487-.387.695-.74.521-.915-.173-.176-.765-.246-.765-.246h-1.183V0h5.706v.458h-.73c-.488.035-1.705.21-3.062 1.372a1538.819 1538.819 0 01-5.498 4.646s7.098 6.195 8.49 7.145zm-10.647.563c-.244-.246-.278-.95-.278-1.548V2.253c0-.564.035-1.303.278-1.55C6.194.459 7.481.459 7.655.459h.035V0H1.81v.458h.034c.174 0 1.497 0 1.705.246.244.246.279.95.279 1.549v10.383c0 .563-.035 1.302-.279 1.548-.243.211-1.496.247-1.67.247h-.035v.457h5.88v-.457h-.069c-.174 0-1.461-.036-1.705-.247zm80.652-.563c1.113.774 2.088.774 2.088.774v.458h-6.542v-.422s1.775-.036 1.949-.211c.174-.177-1.218-1.373-2.157-2.148-.94-.774-5.915-4.821-5.915-4.821l7.097-5.632c.488-.387.662-.704.522-.915-.208-.282-.765-.246-.765-.246h-1.183V0h5.706v.458h-.73c-.488.035-1.705.21-3.062 1.372-1.775 1.514-5.498 4.646-5.498 4.646s7.098 6.195 8.49 7.145zm-10.647.563c-.244-.246-.278-.95-.278-1.548V2.253c0-.564.034-1.303.278-1.55.243-.245 1.53-.245 1.705-.245h.035V0h-5.88v.458h.034c.174 0 1.462 0 1.705.246.244.246.278.95.278 1.549v10.383c0 .563-.034 1.302-.278 1.548-.243.247-1.461.247-1.635.247h-.035v.457h5.88v-.457h-.104c-.174 0-1.462-.036-1.705-.247zM127.521 0h-5.881v.458c1.183.105 2.54.176 2.262 1.02-.278.81-4.001 10.982-4.001 10.982s-3.932-8.94-4.176-9.715c-.243-.774-.765-1.865-.452-2.041.313-.176 2.088-.246 2.088-.246V0h-5.881v.458c1.218.14 1.74.176 2.123 1.302.383 1.126 5.428 13.128 5.428 13.128h.661s4.384-11.65 5.01-13.093c.453-1.091 1.879-1.302 2.505-1.302h.314V0zM26.861 7.602c1.044-3.026 2.088-6.089 2.088-6.089s1.183 3.203 2.226 6.09h-4.314zm8.072 5.526C34.55 12.002 30.132 0 30.132 0h-1.218s-4.21 11.65-4.802 13.093c-.452 1.091-1.879 1.267-2.505 1.302h-.313v.458h5.845v-.422c-1.183-.106-2.54-.176-2.261-1.021.104-.352.904-2.675 1.774-5.139h4.767c.696 1.936 1.287 3.59 1.392 3.872.243.774.765 1.865.452 2.041-.313.176-2.087.247-2.087.247v.457h5.88v-.457c-1.218-.176-1.74-.211-2.123-1.303zm98.224-5.526c1.044-3.026 2.088-6.089 2.088-6.089s1.183 3.203 2.227 6.09h-4.315zm8.072 5.526C140.847 12.002 136.463 0 136.463 0h-1.218s-4.21 11.65-4.802 13.093c-.452 1.091-1.879 1.267-2.505 1.302h-.313v.458h5.88v-.422c-1.183-.106-2.54-.176-2.261-1.021.104-.352.904-2.675 1.774-5.139h4.767c.696 1.936 1.287 3.59 1.392 3.872.243.774.765 1.865.452 2.041-.313.176-2.088.247-2.088.247v.457h5.881v-.457c-1.253-.176-1.81-.211-2.193-1.303zM53.93 10.489s-1.147 3.625-3.479 3.625h-2.818c-.174 0-1.461 0-1.705-.247-.243-.246-.278-.95-.278-1.548V2.253c0-.564.035-1.303.278-1.55.244-.245 1.531-.245 1.705-.245h.035V0h-5.915v.458h.035c.174 0 1.461 0 1.705.246.243.246.278.95.278 1.549v10.066c0 .563-.035 1.302-.278 1.548-.244.247-1.497.564-1.67.564v.457h11.83l.66-4.364h-.382v-.035zM51.6 33.86c-3.34 0-6.054-3.239-6.054-7.287 0-4.012 2.714-7.285 6.054-7.285 3.34 0 6.02 3.273 6.02 7.285 0 4.013-2.68 7.286-6.02 7.286zm0-15.03c-4.419 0-8.002 3.485-8.002 7.779 0 4.293 3.583 7.778 8.002 7.778 4.42 0 8.003-3.485 8.003-7.779 0-4.329-3.584-7.778-8.003-7.778zm-11.83.845s-1.567-.986-3.759-.845c-2.33.141-4.175 1.62-4.175 3.801 0 1.267.592 2.218 1.496 2.957.661.563 1.531.985 2.332 1.478 1.948 1.127 4.418 2.218 3.548 4.646-.73 2.077-3.827 2.78-5.636.915-1.496-1.513-1.357-2.85-1.357-2.85l-.418-.036-.313 3.555s.905.528 2.227.81c.696.14 1.461.21 2.331.21.974 0 1.775-.246 2.47-.527.94-.423 1.636-1.162 2.053-2.358.731-2.077-.034-3.978-1.913-5.174-1.114-.704-2.819-1.514-4.106-2.323-.974-.599-1.426-1.338-1.426-2.077 0-1.725 1.774-2.393 2.957-2.393 1.183 0 2.958.668 3.34 3.097l.348-.106v-2.78zm-13.013 0s-1.566-.986-3.758-.845c-2.331.141-4.175 1.62-4.175 3.801 0 1.267.591 2.218 1.496 2.957.66.563 1.53.985 2.33 1.478 1.95 1.127 4.42 2.218 3.55 4.646-.73 2.077-3.828 2.78-5.637.915-1.496-1.513-1.357-2.85-1.357-2.85h-.417l-.313 3.554s.904.528 2.226.81c.696.14 1.462.21 2.332.21.974 0 1.774-.245 2.47-.527.94-.422 1.635-1.161 2.053-2.358.73-2.077-.035-3.977-1.914-5.174-1.113-.704-2.818-1.514-4.105-2.323-.975-.599-1.427-1.338-1.427-2.077 0-1.724 1.774-2.393 2.957-2.393 1.183 0 2.958.669 3.34 3.097l.349-.105v-2.816zm114.68 0s-1.565-.986-3.758-.845c-2.331.141-4.175 1.62-4.175 3.801 0 1.267.592 2.218 1.496 2.957.661.563 1.531.985 2.332 1.478 1.948 1.127 4.418 2.218 3.549 4.646-.731 2.077-3.828 2.78-5.637.915-1.496-1.513-1.357-2.85-1.357-2.85l-.418-.036-.313 3.555s.905.528 2.227.81c.696.14 1.461.21 2.331.21.975 0 1.775-.246 2.471-.527.939-.423 1.635-1.162 2.053-2.358.73-2.077-.035-3.978-1.914-5.174-1.114-.704-2.818-1.514-4.106-2.323-.974-.599-1.426-1.338-1.426-2.077 0-1.725 1.774-2.393 2.957-2.393 1.183 0 2.958.668 3.34 3.097l.348-.106v-2.78zm-66.455.211s-1.323-.986-4.245-.986c-2.923 0-4.42.74-5.81 2.183-1.427 1.443-2.402 3.273-2.402 5.842 0 2.57 1.183 5.069 3.201 6.125 2.019 1.055 4.176 1.865 9.082.633l.8-2.956-.418-.106s-.487 1.091-1.183 1.725c-.696.598-1.67 1.407-3.827 1.407s-3.793-.985-4.697-2.956c-.905-2.006-.905-4.646-.418-6.688.487-2.006 2.053-3.8 3.55-4.329 1.496-.528 4.662-.915 6.053 2.429h.418l-.104-2.323zm24.738-5.173c-3.34 0-6.02-3.274-6.02-7.286C93.7 3.414 96.414.14 99.72.14c3.34 0 6.019 3.273 6.019 7.286.035 4.048-2.679 7.286-6.02 7.286zm0-15.03c-4.42 0-8.003 3.485-8.003 7.78 0 4.293 3.584 7.778 8.002 7.778 4.419 0 8.003-3.485 8.003-7.779 0-4.294-3.584-7.778-8.003-7.778z"/></g><defs><clipPath id="clip0"><path fill="#fff" d="M0 0h185v34H0z"/></clipPath></defs></svg>