<svg width="40" height="40" fill="none" xmlns="http://www.w3.org/2000/svg"><path d="M19.8 16.987h1.875v5.625H19.8v-5.625zm-9.375 1.875H12.3v-1.875h-1.875v1.875zM34.8 8.55v22.5a3.75 3.75 0 01-3.75 3.75H8.55a3.75 3.75 0 01-3.75-3.75V8.55A3.75 3.75 0 018.55 4.8h22.5a3.75 3.75 0 013.75 3.75zm-19.687 8.437a2.813 2.813 0 00-2.813-2.812H7.613v11.25h2.812v-3.75H12.3a2.812 2.812 0 002.813-2.813v-1.875zm9.375 0a2.813 2.813 0 00-2.813-2.812h-4.688v11.25h4.688a2.812 2.812 0 002.813-2.813v-5.625zm7.5-2.812h-5.625v11.25h2.812v-3.75h2.813v-2.813h-2.813v-1.875h2.813v-2.812z" fill="#971B2F"/></svg>