<svg width="28" height="23" fill="none" xmlns="http://www.w3.org/2000/svg"><path d="M27.947 3a11.424 11.424 0 01-3.28.92A5.731 5.731 0 0027.173.746a11.52 11.52 0 01-3.626 1.4C22.493 1 21.013.333 19.333.333c-3.133 0-5.693 2.56-5.693 5.72 0 .453.053.893.147 1.307A16.259 16.259 0 012 1.386a5.659 5.659 0 00-.773 2.867C1.227 6.24 2.227 8 3.773 9c-.946 0-1.826-.267-2.6-.667v.04a5.724 5.724 0 004.587 5.613 5.625 5.625 0 01-2.573.094c.72 2.253 2.813 3.933 5.333 3.973-1.947 1.547-4.413 2.453-7.107 2.453a11.5 11.5 0 01-1.36-.08A16.192 16.192 0 008.827 23c10.506 0 16.28-8.72 16.28-16.28 0-.254 0-.494-.014-.747A11.43 11.43 0 0027.947 3z" fill="#fff"/></svg>